<svg xmlns="http://www.w3.org/2000/svg" width="343" height="625" viewBox="0 0 343 625" fill="none"><g opacity="0.6"><mask id="mask0_339_1134" style="mask-type:alpha" maskUnits="userSpaceOnUse" x="-282" y="0" width="625" height="625"><circle cx="30.5" cy="312.5" r="312.5" fill="#D9D9D9"></circle></mask><g mask="url(#mask0_339_1134)"><path d="M-419.538 -21.0419C-351.898 4.61577 -278.196 27.2183 -205.254 28.677C-185.099 29.0803 -161.669 28.3879 -143.885 17.6059C-116.861 1.22119 -92.5636 -18.4842 -60.5999 -24.5877C-47.7754 -27.0378 -34.47 -26.937 -21.9482 -22.9812C-5.01135 -17.6305 5.72842 -6.10236 18.405 5.53668C58.479 42.3259 118.012 37.9095 167.561 28.398C194.532 23.2221 221.005 15.8952 247.605 9.14636C269.471 3.5974 293.157 -3.50769 315.974 -1.90787C326.27 -1.18526 334.905 4.19902 344.956 5.89294C352.71 7.197 360.574 6.76007 368.308 5.56693C386.146 2.8143 403.5 -3.60852 421.805 -1.20206C454.414 3.08317 477.669 31.8968 495.534 56.8453C501.798 56.8755 511.466 57.5645 512.592 65.3552C513.493 71.5831 508.645 78.8697 505.672 83.9044C494.788 102.349 481.385 119.222 472.895 139.034C465.601 156.058 462.222 175.393 470.985 192.561C475.467 201.34 484.088 207.46 487.148 216.915C490.652 227.744 488.409 239.897 485.961 250.696C480.174 276.233 467.394 303.292 471.603 329.995C474.845 350.557 493.597 365.712 504.741 382.483C510.84 391.662 515.904 401.624 514.149 412.933C511.674 428.871 501.086 443.965 493.52 457.816C480.558 481.537 453.194 521.352 475.769 546.908C484.199 556.45 494.986 563.031 499.495 575.594C507.579 598.113 497.225 624.819 489.566 645.822C420.719 624.688 348.927 606.542 276.496 616.491C251.623 619.909 227.719 628.012 202.972 631.612C189.286 633.601 175.134 633.511 162.265 627.958C154.821 624.748 148.395 619.798 141.304 615.953C115.618 602.032 85.8631 615.492 61.6666 626.469C45.8966 633.625 29.8509 636.465 12.8334 632.133C-1.52107 628.479 -14.4565 621.085 -27.9468 615.22C-41.1244 609.49 -55.2535 605.453 -69.6483 608.744C-89.7694 613.345 -102.093 628.573 -116.437 641.876C-136.659 660.63 -165.371 665.379 -192.009 665.352C-226.195 665.322 -260.15 658.237 -293.357 650.776C-324.538 643.772 -357.073 633.161 -389.286 632.926C-388.936 601.521 -384.901 570.324 -377.614 539.776C-374.091 525.002 -369.834 510.402 -364.834 496.057C-360.012 482.23 -351.865 468.302 -350.957 453.52C-349.144 423.981 -370.967 396.969 -388.334 375.297C-407.695 351.135 -430.136 328.143 -444.36 300.371C-449.703 289.935 -453.839 278.501 -453.849 266.637C-453.862 251.513 -446.27 236.509 -441.31 222.508C-432.655 198.077 -423.939 171.992 -407.971 151.181C-401.865 143.222 -394.501 136.184 -385.526 131.56C-377.046 127.19 -366.051 127.123 -358.643 120.801C-345.59 109.66 -356.72 89.813 -363.653 78.547C-377.981 55.2522 -397.11 35.2208 -414.269 14.0534C-420.782 6.00386 -446.902 -24.8633 -419.538 -21.0419Z" stroke="url(#paint0_radial_339_1134)" stroke-width="0.3" stroke-miterlimit="10"></path><path d="M-388.64 613.03C-356.871 613.843 -325.233 623.963 -294.47 631.004C-262.9 638.234 -230.59 644.959 -198.044 644.7C-171.178 644.485 -143.232 638.795 -122.321 620.898C-107.469 608.187 -95.0077 593.257 -74.9707 588.649C-60.7979 585.389 -46.8806 589.059 -33.8072 594.558C-20.3876 600.204 -7.5463 607.346 6.63664 611.017C23.7113 615.436 40.09 613.174 56.324 606.815C85.5171 595.381 116.001 586.532 146.586 597.532C155.726 600.819 164.532 605.011 173.933 607.551C188.944 611.608 204.458 611.218 219.677 608.469C246.129 603.693 270.366 591.046 297.078 586.512C323.682 581.995 350.581 583.194 377.246 586.529C418.685 591.704 459.738 599.996 500.982 606.483" stroke="url(#paint1_radial_339_1134)" stroke-width="0.3" stroke-miterlimit="10"></path><path d="M-386.889 592.655C-357.316 593.744 -328.129 603.037 -299.528 609.833C-270.412 616.75 -240.591 623.119 -210.506 622.595C-183.381 622.124 -156.495 615.103 -135.442 597.337C-121.67 585.715 -109.225 572.62 -91.2627 567.69C-75.8323 563.455 -60.8828 567.286 -46.5687 573.4C-34.4368 578.583 -22.7421 584.854 -10.0521 588.635C9.26867 594.393 26.9184 592.218 45.7617 585.896C76.7335 575.507 107.463 571.145 139.259 579.894C149.834 582.804 160.214 586.394 171.031 588.356C186.434 591.146 201.979 590.407 217.278 587.304C233.442 584.027 247.363 576.906 262.716 571.306C274.969 566.836 287.595 563.334 300.513 561.435C326.862 557.563 353.022 561.395 378.99 566.087C419.552 573.414 459.754 579.477 501.031 581.003" stroke="url(#paint2_radial_339_1134)" stroke-width="0.3" stroke-miterlimit="10"></path><path d="M-384.049 571.968C-329.786 574.462 -279.564 601.978 -224.5 599.72C-198.857 598.668 -174.426 590.342 -154.641 573.756C-140.935 562.265 -127.744 549.792 -109.903 545.211C-95.108 541.413 -80.8309 544.835 -67.0784 550.639C-54.2303 556.064 -41.9808 562.856 -28.5881 566.93C-11.4495 572.143 5.9547 571.921 23.1975 567.179C56.7651 557.946 88.3254 554.807 122.438 562.51C150.666 568.886 176.379 573.739 205.202 566.879C221.594 562.977 236.019 555.052 251.742 549.295C265.622 544.213 280.078 540.503 294.852 539.377C321.012 537.384 345.865 544.724 370.797 551.564C411.399 562.702 451.571 567.434 493.73 564.96" stroke="url(#paint3_radial_339_1134)" stroke-width="0.3" stroke-miterlimit="10"></path><path d="M-380.162 551.144C-332.448 553.853 -288.662 579.937 -240.134 576.768C-216.466 575.222 -194.721 565.939 -176.543 550.821C-162.407 539.064 -148.409 526.763 -129.929 522.589C-115.171 519.255 -101.203 522.848 -87.6493 528.776C-75.4839 534.097 -63.8295 540.557 -51.1799 544.741C-34.0413 550.411 -16.1899 551.211 1.45978 547.379C20.7503 543.192 39.7584 539.921 59.5803 540.365C74.1936 540.691 88.585 542.97 102.902 545.756C131.376 551.298 158.01 554.921 186.571 547.198C204.52 542.345 220.603 533.041 238.195 527.156C252.092 522.508 266.612 519.362 281.309 519.174C308.928 518.818 333.474 530.336 358.622 540.19C399.275 556.125 439.746 559.906 483.044 553.923" stroke="url(#paint4_radial_339_1134)" stroke-width="0.3" stroke-miterlimit="10"></path><path d="M-375.251 530.349C-334.054 533.357 -296.512 558.312 -254.498 554.457C-232.352 552.424 -212.51 541.776 -195.775 527.556C-182.05 515.89 -166.959 504.308 -148.855 500.658C-135.045 497.872 -121.764 501.236 -109.101 506.728C-97.0259 511.964 -85.5599 518.508 -73.122 522.918C-55.9431 529.011 -37.8463 530.651 -19.8267 527.774C-0.442034 524.679 18.5392 522.511 38.2097 523.455C53.5359 524.191 68.667 526.571 83.7814 529.078C112.362 533.821 139.979 536.251 168.153 527.593C186.973 521.812 204.04 511.722 222.847 505.79C237.991 501.014 253.795 498.077 269.723 499.001C299.131 500.705 323.173 516.824 348.61 529.845C363.809 537.625 379.622 543.833 396.479 546.891C422.064 551.533 447.719 548.794 472.968 543.463" stroke="url(#paint5_radial_339_1134)" stroke-width="0.3" stroke-miterlimit="10"></path><path d="M-369.348 509.745C-333.924 513.207 -301.453 537.826 -265.222 533.396C-244.647 530.882 -226.476 519.337 -210.915 506.28C-197.408 494.943 -182.024 483.973 -164.358 480.424C-151.002 477.738 -138.178 480.8 -125.898 486.101C-114.129 491.182 -102.979 497.572 -90.9214 502.001C-73.7895 508.293 -55.733 510.394 -37.579 508.478C-1.4256 504.66 32.8953 507.466 68.7763 512.178C98.4872 516.084 127.771 517.331 156.497 507.241C176.086 500.358 193.901 489.572 213.844 483.422C229.984 478.444 246.924 475.547 263.827 477.396C294.624 480.763 317.674 500.711 342.919 516.561C357.489 525.71 372.973 532.956 389.974 536.169C416.117 541.11 442.254 536.414 467.482 529.151" stroke="url(#paint6_radial_339_1134)" stroke-width="0.3" stroke-miterlimit="10"></path><path d="M-362.481 489.51C-344.004 491.947 -327.478 499.281 -310.524 506.524C-297.471 512.099 -284.038 516.381 -269.69 514.193C-250.393 511.249 -233.194 499.281 -218.274 487.42C-193.681 467.869 -167.074 454.227 -136.297 466.888C-124.498 471.741 -113.398 478.07 -101.374 482.425C-83.3144 488.969 -64.9956 490.633 -45.9236 489.443C-9.75001 487.191 25.8116 491.564 61.7531 494.854C93.885 497.799 126.081 497.842 156.572 485.877C177.712 477.582 196.817 465.409 218.663 458.583C235.19 453.417 252.779 450.439 270.069 452.883C301.182 457.282 322.668 479.663 346.818 497.422C360.197 507.26 374.864 515.215 391.327 518.378C418.361 523.57 445.419 516.086 470.584 506.554" stroke="url(#paint7_radial_339_1134)" stroke-width="0.3" stroke-miterlimit="10"></path><path d="M-354.687 469.804C-336.069 473.01 -319.922 480.805 -303.285 489.274C-292.131 494.951 -280.837 499.337 -268.093 497.781C-219.391 491.832 -188.17 430.188 -135.369 450.398C-123.903 454.787 -113.079 460.635 -101.415 464.561C-84.8816 470.13 -67.8842 471.784 -50.5271 471.454C-9.79066 470.681 30.5692 475.524 71.2014 477.292C106.645 478.835 142.614 476.788 175.559 462.464C197.187 453.06 216.629 439.774 238.993 431.761C255.465 425.859 273.166 421.86 290.741 423.742C322.507 427.143 342.275 450.902 365.449 469.918C378.381 480.529 392.826 488.814 409.675 490.854C436.464 494.097 462.678 483.077 486.131 471.478" stroke="url(#paint8_radial_339_1134)" stroke-width="0.3" stroke-miterlimit="10"></path><path d="M-350.809 450.197C-331.851 453.262 -314.437 460.048 -296.549 466.676C-283.795 471.401 -270.866 474.591 -257.171 473.142C-237.312 471.038 -218.539 461.674 -201.36 452.062C-187.984 444.577 -175.409 435.691 -160.23 432.179C-148.287 429.416 -136.787 431.016 -125.355 434.985C-114.339 438.81 -103.808 443.855 -92.6311 447.249C-76.9485 452.008 -61.0238 453.423 -44.7056 453.302C-3.56231 452.993 37.006 459.107 77.9375 462.128C114.609 464.837 151.418 463.261 186.045 449.783C223.187 435.328 256.505 407.284 298.745 410.813C329.377 413.371 349.112 435.627 372.161 453.067C385.571 463.21 400.406 470.8 417.303 472.688C444.458 475.727 471.096 465.6 495.326 454.539" stroke="url(#paint9_radial_339_1134)" stroke-width="0.3" stroke-miterlimit="10"></path><path d="M-354.326 430.297C-319.871 435.775 -286.303 452.267 -250.896 449.787C-229.699 448.301 -208.785 441.492 -189.309 433.305C-175.509 427.504 -162.836 419.908 -147.752 417.663C-136.915 416.049 -126.212 417.35 -115.688 420.123C-104.638 423.034 -93.9189 427.057 -82.8227 429.809C-65.822 434.027 -49.1475 434.646 -31.7096 434.834C6.54529 435.251 44.0605 442.097 81.9556 446.402C120.079 450.735 157.928 449.837 194.276 436.323C230.554 422.835 262.635 395.349 303.647 398.582C333.284 400.915 353.308 422.133 376.337 438.232C390.356 448.032 405.756 455.08 422.898 456.976C450.49 460.024 477.683 451.027 502.841 440.699" stroke="url(#paint10_radial_339_1134)" stroke-width="0.3" stroke-miterlimit="10"></path><path d="M-363.613 410.169C-324.618 416.538 -286.323 429.071 -246.417 427.438C-224.853 426.557 -203.528 422.423 -182.658 417.12C-168.633 413.557 -155.67 407.262 -141.188 405.249C-128.844 403.531 -116.521 404.486 -104.305 406.627C-92.7112 408.657 -81.272 411.463 -69.6513 413.342C-52.6708 416.088 -36.0097 415.933 -18.8778 416.37C17.2453 417.291 52.3025 425.105 87.8473 430.671C124.307 436.378 160.242 436.156 195.453 423.979C232.172 411.282 264.68 382.952 305.85 386.837C334.717 389.56 355.017 410.021 378.221 424.971C392.976 434.476 409.001 441.181 426.55 443.197C454.61 446.42 482.428 438.721 508.581 429.31" stroke="url(#paint11_radial_339_1134)" stroke-width="0.3" stroke-miterlimit="10"></path><path d="M-377.045 389.892C-334.224 397.316 -291.689 406.011 -248.047 406.152C-224.086 406.23 -200.155 404.31 -176.369 401.551C-162.176 399.908 -148.565 395.175 -134.261 393.71C-121.1 392.362 -107.879 392.755 -94.7147 393.831C-82.3374 394.839 -70.0039 396.352 -57.6199 397.296C-40.7604 398.58 -24.1127 397.854 -7.25999 398.109C27.5652 398.637 60.9984 408.364 94.8518 415.26C128.897 422.197 162.259 421.979 195.434 410.75C231.163 398.657 262.586 372.008 302.418 375.083C332.085 377.372 353.736 398.277 378.08 412.857C420.532 438.28 466.601 433.813 512.465 419.744" stroke="url(#paint12_radial_339_1134)" stroke-width="0.3" stroke-miterlimit="10"></path><path d="M-393 369.526C-345.508 378.392 -297.879 383.834 -249.604 385.652C-223.985 386.617 -198.343 386.976 -172.707 387.282C-158.282 387.453 -143.864 384.294 -129.435 383.266C-115.162 382.247 -100.854 382.032 -86.5502 382.049C-71.8528 382.069 -57.1554 382.304 -42.458 382.18C-25.185 382.032 -7.49499 379.703 9.7041 380.651C41.15 382.385 70.2692 392.246 100.474 400.047C131.762 408.127 162.27 407.606 193.03 397.187C227.677 385.45 258.077 360.643 296.594 363.322C325.979 365.365 348.259 385.155 372.58 399.402C417.244 425.564 465.293 423.776 514.379 411.34" stroke="url(#paint13_radial_339_1134)" stroke-width="0.3" stroke-miterlimit="10"></path><path d="M-409.856 349.146C-358.599 359.578 -306.702 362.002 -254.675 365.779C-226.924 367.793 -199.224 370.444 -171.635 374.064C-156.941 375.99 -141.793 374.417 -126.998 373.779C-110.196 373.053 -93.3999 372.142 -76.6178 371.063C-61.9843 370.125 -47.3575 369.066 -32.7341 367.93C-15.3063 366.579 2.92503 363.437 20.3998 363.874C50.0435 364.617 76.5903 376.249 104.29 385.152C132.781 394.311 160.551 393.007 188.779 383.25C223.131 371.379 253.823 347.476 292.102 351.6C320.955 354.708 343.766 374.279 368.248 387.938C414.032 413.478 463.723 413.626 514.244 403.463" stroke="url(#paint14_radial_339_1134)" stroke-width="0.3" stroke-miterlimit="10"></path><path d="M-425.989 328.821C-371.789 340.995 -316.352 340.578 -261.358 346.376C-231.634 349.508 -202.152 354.529 -173.117 361.641C-141.331 369.429 -105.101 364.854 -72.9956 361.137C-57.2424 359.312 -41.5329 357.111 -25.82 354.98C-6.91279 352.415 13.9615 347.313 33.0368 348.597C58.5278 350.315 80.1082 360.25 103.366 369.674C130.179 380.54 156.215 378.547 183.185 368.884C216.127 357.084 246.218 335.163 282.906 339.116C312.667 342.322 336.675 362.495 362.197 376.164C409.039 401.254 460.142 403.304 511.962 395.473" stroke="url(#paint15_radial_339_1134)" stroke-width="0.3" stroke-miterlimit="10"></path><path d="M-439.766 308.622C-383.596 322.704 -325.428 319.481 -268.401 327.389C-236.861 331.762 -205.882 339.374 -175.932 350.193C-143.081 362.061 -104.755 357.285 -71.0466 352.022C-54.2039 349.39 -37.4621 346.154 -20.6934 343.102C-1.57101 339.62 19.8849 333.584 39.3772 334.709C63.6678 336.114 82.4943 346.517 104.034 356.32C164.078 383.659 214.932 317.858 275.154 326.216C304.475 330.286 328.698 350.153 354.257 363.452C402.169 388.381 454.364 392.236 507.455 386.71" stroke="url(#paint16_radial_339_1134)" stroke-width="0.3" stroke-miterlimit="10"></path><path d="M-449.575 288.621C-393.139 304.636 -333.755 298.64 -276.337 308.552C-243.939 314.145 -212.567 324.305 -182.934 338.528C-149.013 354.812 -109.908 350.678 -74.0467 344.061C-56.2088 340.767 -38.5423 336.629 -20.8254 332.758C-1.34656 328.503 20.2742 322.006 40.3314 322.661C51.6966 323.031 62.9575 325.017 73.5359 329.276C82.7188 332.973 90.9367 338.458 99.8002 342.787C124.05 354.624 149.962 346.907 173.677 337.181C203.428 324.977 231.979 307.127 265.53 312.249C294.454 316.662 318.762 336.182 344.185 349.199C393.056 374.219 446.331 379.821 500.608 376.551" stroke="url(#paint17_radial_339_1134)" stroke-width="0.3" stroke-miterlimit="10"></path><path d="M-453.787 268.889C-399.19 286.786 -340.454 278.014 -284.65 289.663C-252.549 296.365 -222.088 308.838 -194.065 325.807C-179.065 334.889 -164.095 340.908 -146.51 342.595C-125.222 344.639 -103.699 341.59 -82.8512 337.399C-64.1861 333.645 -45.7731 328.765 -27.2963 324.204C-7.36014 319.284 13.9243 312.988 34.5901 312.78C45.8107 312.666 57.0515 314.047 67.6165 317.956C75.7537 320.967 83.0603 325.575 90.8445 329.319C114.879 340.874 140.851 332.049 164.066 322.436C193.272 310.34 221.682 292.046 254.685 296.947C283.02 301.151 307.244 320.288 332.166 332.969C381.82 358.234 436.074 365.443 491.339 364.337" stroke="url(#paint18_radial_339_1134)" stroke-width="0.3" stroke-miterlimit="10"></path><path d="M-450.714 249.293C-425.633 259.598 -398.377 260.798 -371.635 261.763C-344.816 262.731 -318.007 263.978 -291.87 270.605C-260.811 278.48 -232.233 293.416 -206.843 312.812C-192.438 323.816 -178.871 332.44 -160.623 335.277C-139.035 338.635 -116.836 335.368 -95.6663 330.864C-57.7509 322.801 -20.6594 308.221 18.2277 305.361C30.2687 304.477 42.4543 304.854 54.1827 307.912C63.4497 310.329 71.9366 314.718 80.9817 317.75C106.933 326.451 134.838 315.162 158.665 304.978C186.765 292.966 214.697 274.847 246.651 280.393C273.026 284.97 295.743 302.686 319.133 314.597C369.163 340.077 423.827 348.566 479.573 349.42" stroke="url(#paint19_radial_339_1134)" stroke-width="0.3" stroke-miterlimit="10"></path><path d="M-442.167 224.957C-420.963 238.055 -395.294 238.828 -371.118 239.292C-346.407 239.765 -321.572 240.007 -297.51 246.37C-269.689 253.724 -245.058 268.982 -224.722 289.195C-212.506 301.338 -201.541 310.702 -184.009 313.626C-164.5 316.883 -144.258 313.509 -125.099 309.606C-104.056 305.318 -83.3264 299.584 -62.2067 295.652C-53.9921 294.122 -45.7137 292.849 -37.3781 292.207C-26.5946 291.377 -16.2684 292.97 -5.56903 293.087C19.4882 293.363 44.5924 296.983 69.6396 296.079C101.862 294.916 133.076 283.898 163.009 272.79C191.284 262.297 218.537 250.635 249.004 258.933C275.306 266.099 297.518 284.278 321.16 297.077C367.851 322.351 419.095 330.774 471.789 331.207" stroke="url(#paint20_radial_339_1134)" stroke-width="0.3" stroke-miterlimit="10"></path><path d="M-433.764 201.904C-415.482 217.697 -389.708 218.043 -366.85 218.026C-342.61 218.01 -318.091 217.132 -294.412 223.266C-268.067 230.092 -245.788 245.758 -229.086 267.1C-219.217 279.71 -211.231 289.581 -194.54 292.227C-175.774 295.201 -156.134 290.681 -137.899 286.516C-117.169 281.784 -96.591 275.973 -75.4679 273.193C-67.3912 272.131 -59.2237 271.506 -51.0731 271.856C-40.2022 272.32 -30.6695 276.769 -20.1584 277.909C10.3594 281.223 40.8269 281.095 71.0152 275.2C108.1 267.96 144.159 255.615 180.393 245.102C209.22 236.74 236.056 230.213 265.135 240.915C290.151 250.12 311.157 267.823 334.324 280.591C376.779 303.99 423.474 311.072 471.534 310.288" stroke="url(#paint21_radial_339_1134)" stroke-width="0.3" stroke-miterlimit="10"></path><path d="M-424.997 180.76C-408.715 199.117 -381.587 198.996 -359.035 198.506C-334.354 197.971 -309.236 195.901 -284.959 201.608C-258.483 207.832 -237.306 224.009 -223.184 247.173C-219.549 253.132 -217.175 259.948 -211.751 264.616C-206.338 269.271 -199.327 271.173 -192.336 271.701C-173.792 273.106 -154.781 266.962 -137.128 262.173C-118.422 257.098 -99.606 251.602 -80.2718 249.522C-70.7593 248.497 -61.0384 248.295 -51.5932 250.043C-42.3026 251.764 -35.2011 257.108 -26.4418 259.911C7.66716 270.83 47.9396 263.746 81.4568 254.634C123.767 243.129 164.866 228.25 207.997 219.74C236.262 214.164 262.224 213.005 288.888 225.215C311.975 235.789 331.575 252.55 353.774 264.724C391.602 285.464 433.33 290.418 475.953 287.934" stroke="url(#paint22_radial_339_1134)" stroke-width="0.3" stroke-miterlimit="10"></path><path d="M-415.343 162.146C-400.467 182.883 -371.372 182.211 -348.584 181.236C-322.397 180.117 -295.652 176.692 -269.714 182.133C-243.402 187.652 -223.036 203.781 -211.311 227.917C-208.295 234.124 -207.135 241.844 -201.768 246.604C-197.844 250.086 -192.716 251.309 -187.622 251.682C-168.335 253.094 -147.743 243.989 -129.764 238.252C-111.18 232.323 -92.2253 226.31 -72.6758 224.737C-63.1701 223.974 -53.4256 224.307 -44.2225 226.999C-34.6731 229.792 -28.4928 236.672 -19.8008 240.655C-3.42889 248.153 17.6034 249.104 35.2699 247.884C57.6237 246.338 79.3655 240.174 100.559 233.217C167.439 211.266 247.301 173.375 315.183 210.799C336.101 222.331 354.319 238.127 375.422 249.376C408.69 267.106 445.207 269.72 482.187 265.371" stroke="url(#paint23_radial_339_1134)" stroke-width="0.3" stroke-miterlimit="10"></path><path d="M-404.296 146.683C-390.537 169.75 -358.966 168.224 -335.725 166.688C-307.742 164.839 -278.943 159.842 -251.037 165.048C-225.395 169.834 -205.825 185.425 -196.276 209.853C-193.953 215.798 -193.781 224.11 -189.238 228.896C-185.106 233.249 -178.868 233.541 -173.263 233.117C-154.578 231.713 -136.037 222.342 -118.741 215.953C-99.6383 208.895 -79.9173 201.918 -59.4936 200.096C-49.5911 199.212 -39.4062 199.615 -29.887 202.707C-25.3006 204.196 -20.926 206.29 -16.9314 208.996C-10.9831 213.026 -7.23059 218.736 -0.697288 221.811C38.1158 240.071 80.937 227.162 118.735 212.767C165.019 195.138 211.327 172.596 261.872 171.837C290.093 171.413 314.626 180.925 338.039 196.043C357.158 208.391 374.401 223.673 394.673 234.213C423.856 249.388 455.561 249.976 487.377 243.849" stroke="url(#paint24_radial_339_1134)" stroke-width="0.3" stroke-miterlimit="10"></path><path d="M-391.336 134.998C-378.875 160.411 -344.366 157.544 -320.879 155.292C-292.083 152.532 -262.56 146.281 -233.602 150.324C-206.797 154.068 -187.436 169.805 -180.257 196.131C-178.717 201.777 -179.352 210.183 -174.514 214.314C-170.896 217.403 -165.627 217.107 -161.228 216.569C-139.661 213.941 -118.417 201.24 -98.5383 193.217C-78.0541 184.949 -56.5645 177.041 -34.3284 175.659C-23.6155 174.994 -12.6438 176.002 -2.65385 180.15C8.38181 184.731 14.1417 193.338 23.0759 200.51C58.4223 228.887 109.727 205.068 144.357 188.703C185.901 169.072 230.517 142.275 278.17 145.206C306.019 146.92 330.329 163.197 352.108 179.437C370.249 192.965 387.226 208.647 407.397 219.191C433.315 232.742 460.915 232.292 488.662 224.625" stroke="url(#paint25_radial_339_1134)" stroke-width="0.3" stroke-miterlimit="10"></path><path d="M-375.948 127.712C-365.527 155.531 -327.891 150.543 -304.784 147.458C-275.695 143.576 -245.796 135.792 -216.27 138.837C-190.05 141.542 -172.084 156.929 -167.777 183.336C-166.832 189.12 -168.029 197.583 -162.454 201.361C-158.278 204.191 -151.98 202.981 -147.42 201.942C-124.851 196.807 -103.637 184.27 -82.531 175.145C-57.467 164.309 -30.7118 153.685 -3.09572 152.529C7.10268 152.102 17.4557 153.107 27.1128 156.556C41.9716 161.863 49.6011 172.194 60.2736 182.862C90.1694 212.754 135.697 182.6 163.633 165.103C182.923 153.02 201.81 140.124 222.066 129.665C240.718 120.032 262.483 111.065 283.936 114.705C298.677 117.205 310.698 126.73 322.406 135.415C332.709 143.055 342.618 151.202 352.372 159.523C370.694 175.152 388.489 192.548 409.686 204.322C433.082 217.319 458.179 218.119 483.19 208.947" stroke="url(#paint26_radial_339_1134)" stroke-width="0.3" stroke-miterlimit="10"></path><path d="M-361.887 123.036C-351.54 149.95 -315.199 145.369 -292.536 142.324C-264.301 138.533 -235.652 130.897 -206.974 132.678C-181.241 134.278 -163.181 147.924 -160.057 174.344C-159.422 179.712 -159.929 185.587 -154.866 188.998C-149.122 192.87 -140.195 190.43 -134.173 188.796C-111.732 182.716 -90.6691 171.568 -69.1694 162.887C-44.6132 152.972 -18.638 143.585 8.08698 142.344C20.1247 141.787 32.2061 143.067 43.4805 147.463C57.613 152.975 66.3688 162.46 75.9855 173.682C102.146 204.203 145.387 171.366 169.315 154.41C187.902 141.235 205.932 127.133 225.491 115.389C242.065 105.441 262.902 94.5615 282.896 98.9408C295.905 101.791 306.867 112.143 317.085 120.149C326.991 127.912 336.611 136.026 346.151 144.23C364.032 159.616 381.642 176.22 402.321 187.849C424.423 200.277 448.562 202.886 473.007 196.133" stroke="url(#paint27_radial_339_1134)" stroke-width="0.3" stroke-miterlimit="10"></path><path d="M-354.485 115.678C-342.831 140.996 -308.093 137.682 -285.342 135.037C-256.768 131.713 -227.834 124.101 -198.9 125.808C-175.144 127.21 -157.958 138.247 -154.202 162.749C-153.341 168.365 -153.277 173.047 -147.4 175.856C-141.993 178.441 -134.653 176.925 -129.084 175.668C-105.228 170.284 -82.6485 158.648 -59.8206 150.189C-13.4553 133.001 44.2549 118.048 80.0619 162.54C106.313 195.158 147.994 162.9 172.954 144.687C191.589 131.088 209.588 116.475 229.195 104.258C243.942 95.0687 262.493 84.5455 280.651 87.4359C293.025 89.4055 303.26 99.2363 312.883 106.587C323.189 114.458 333.25 122.639 343.277 130.86C360.621 145.077 377.917 160.033 397.739 170.751C419.336 182.43 442.968 186.403 467.282 182.921" stroke="url(#paint28_radial_339_1134)" stroke-width="0.3" stroke-miterlimit="10"></path><path d="M-352.706 105.881C-338.715 130.622 -303.274 127.775 -279.286 125.375C-251.452 122.589 -223.486 116.109 -195.389 117.137C-174.125 117.917 -154.108 125.56 -149.817 148.562C-148.64 154.861 -147.793 159.106 -141.001 161.213C-134.77 163.146 -127.262 161.321 -121.172 159.825C-98.163 154.182 -76.3506 143.8 -54.017 136.036C-8.56633 120.236 47.7081 107.861 82.2072 150.882C108.868 184.125 151.239 151.376 176.747 132.853C193.949 120.361 210.603 107.058 228.441 95.4658C243.051 85.9711 261.394 74.4362 279.632 76.2142C292.187 77.4376 303.082 87.8734 312.846 95.0625C322.221 101.963 331.471 109.031 340.735 116.082C358.381 129.516 376.132 143.259 395.943 153.409C417.662 164.537 441.256 169.666 465.634 169.38" stroke="url(#paint29_radial_339_1134)" stroke-width="0.3" stroke-miterlimit="10"></path><path d="M-355.595 94.1426C-338.968 117.989 -303.322 116.221 -277.808 114.278C-249.522 112.127 -221.16 106.296 -192.703 107.234C-173.429 107.869 -152.242 112.964 -146.513 133.906C-145.023 139.351 -144.509 142.662 -138.641 144.705C-131.943 147.038 -123.766 144.937 -117.175 143.334C-94.7239 137.872 -73.3251 128.058 -51.4286 120.809C-28.3048 113.152 -3.84278 106.427 20.7571 107.415C46.7558 108.457 66.6012 119.649 82.9025 139.358C108.407 170.191 151.282 139.758 175.673 122.956C193.296 110.816 210.256 97.7053 228.226 86.0696C243.226 76.3564 262.741 63.5981 281.595 65.5744C293.622 66.8348 304.322 76.837 313.979 83.5455C323.239 89.975 332.452 96.4718 341.74 102.868C359.638 115.196 377.839 127.319 397.56 136.578C419.605 146.927 443.169 152.943 467.325 155.719" stroke="url(#paint30_radial_339_1134)" stroke-width="0.3" stroke-miterlimit="10"></path><path d="M-362.188 80.9564C-342.851 103.65 -307.515 103.377 -280.332 102.12C-251.516 100.786 -222.767 95.8892 -193.876 96.3934C-174.159 96.7395 -151.949 99.8451 -143.765 120.273C-141.653 125.55 -140.292 127.324 -134.246 128.37C-127.877 129.469 -120.769 127.697 -114.609 126.131C-93.1631 120.67 -72.6823 111.608 -51.6466 104.813C-28.627 97.3748 -4.11117 90.9755 20.3038 92.6055C45.5258 94.2894 63.8244 105.549 79.7188 124.488C105.657 155.392 149.06 128.06 175.022 111.518C194.756 98.9443 213.636 85.0265 233.72 73.001C248.236 64.3095 266.592 53.2755 284.353 55.1979C295.671 56.4213 305.372 65.3212 314.662 71.3104C323.825 77.219 333.021 83.0772 342.325 88.764C382.961 113.612 425.187 131.233 471.623 142.133" stroke="url(#paint31_radial_339_1134)" stroke-width="0.3" stroke-miterlimit="10"></path><path d="M-371.516 66.8248C-348.456 87.8644 -315.097 89.6525 -285.386 89.2223C-254.794 88.7786 -224.286 84.4967 -193.677 85.132C-174.626 85.5286 -152.484 87.3737 -142.043 105.469C-136.253 115.505 -121.751 110.911 -112.315 108.292C-90.9671 102.374 -70.5299 93.4605 -49.3598 86.9503C-6.29311 73.7114 41.1649 68.4481 72.9068 106.622C100.99 140.393 145.55 116.1 175.936 98.4213C196.155 86.6545 215.56 73.5165 236.024 62.1698C250.926 53.9086 269.356 43.5769 287.137 45.3347C298.243 46.4338 307.836 54.7454 317.154 60.2608C326.979 66.0753 336.929 71.6881 347.04 76.9917C388.758 98.8783 433.395 113.452 477.776 128.845" stroke="url(#paint32_radial_339_1134)" stroke-width="0.3" stroke-miterlimit="10"></path><path d="M-382.616 52.2415C-355.965 73.0157 -320.383 75.7851 -287.764 76.0406C-256.886 76.2792 -226.059 73.1266 -195.188 73.782C-177.205 74.1651 -153.479 74.6726 -141.334 90.1869C-134.071 99.4632 -117.343 92.5228 -107.995 89.5214C-88.7417 83.3406 -70.0597 75.5162 -50.6918 69.6648C-30.406 63.5344 -8.82895 58.7584 12.4791 60.8658C34.5706 63.0538 51.9815 73.6744 66.1476 90.3516C95.6601 125.094 142.916 102.935 175.953 85.747C195.852 75.3919 215.048 63.7461 234.984 53.4616C251.555 44.9146 272.379 33.7058 291.73 36.25C302.355 37.6482 311.851 45.3751 321.151 50.3594C330.825 55.542 340.691 60.3717 350.735 64.8048C394.635 84.1707 441.229 96.3543 485.056 116.066" stroke="url(#paint33_radial_339_1134)" stroke-width="0.3" stroke-miterlimit="10"></path><path d="M-394.524 37.7013C-365.795 57.1546 -330.24 61.591 -296.333 62.9959C-263.801 64.3437 -231.282 62.1523 -198.75 62.7338C-187.264 62.9388 -175.613 63.3925 -164.312 65.604C-154.934 67.4391 -148.582 71.0085 -140.734 76.013C-131.4 81.9686 -117.24 75.4382 -107.479 72.0235C-88.8308 65.4999 -70.6028 57.8469 -51.6249 52.2778C-33.6962 47.0179 -14.8461 43.1057 3.93333 44.6383C26.8049 46.507 43.7485 57.326 58.4391 74.2048C89.2596 109.616 138.9 90.3946 174.673 74.0098C195.981 64.2496 216.577 53.0172 237.861 43.2099C255.006 35.3116 275.85 25.3228 295.299 27.7427C306.62 29.151 316.852 37.0728 327.004 41.8689C336.069 46.1507 345.339 49.989 354.771 53.3869C374.432 60.4718 394.731 65.4461 414.734 71.4185C441.923 79.5353 467.841 90.3475 492.734 103.99" stroke="url(#paint34_radial_339_1134)" stroke-width="0.3" stroke-miterlimit="10"></path><path d="M-406.28 23.7054C-346.119 59.6611 -269.034 51.2015 -201.878 52.435C-181.122 52.8181 -160.701 53.487 -141.529 61.8491C-138.926 62.9851 -139.508 63.4724 -136.397 63.7178C-133.718 63.9295 -130.342 62.8002 -127.783 62.165C-121.737 60.666 -115.849 58.4713 -110.026 56.2799C-92.117 49.5345 -74.5279 41.9555 -56.1721 36.4603C-37.4498 30.8542 -17.4296 26.8916 2.13668 29.7585C9.93427 30.9012 17.5671 33.18 24.6048 36.756C36.1011 42.5974 43.3842 51.5208 52.083 60.6358C84.4906 94.6051 136.34 77.696 173.731 62.733C195.647 53.9642 216.915 43.6864 238.728 34.6689C256.777 27.2075 277.742 18.1329 297.81 19.9546C309.299 20.9965 319.417 28.2763 329.868 32.733C339.158 36.6956 348.711 40.0162 358.425 42.7856C378.449 48.4926 399.064 51.6586 419.222 56.8042C448.254 64.2152 474.912 76.6272 500.076 92.8338" stroke="url(#paint35_radial_339_1134)" stroke-width="0.3" stroke-miterlimit="10"></path><path d="M-416.91 10.7485C-352.929 45.017 -275.356 41.9081 -204.879 43.2727C-193.06 43.5012 -181.22 43.7634 -169.432 44.7011C-159.61 45.4842 -150.716 47.8537 -141.197 49.7627C-130.995 51.8095 -118.117 44.0927 -108.83 40.2108C-92.2123 33.2637 -75.642 26.088 -58.3353 20.9928C-41.1026 15.9177 -22.6963 12.5803 -4.74743 15.39C15.3669 18.5393 28.4638 29.3683 41.8398 43.9012C76.1236 81.1575 131.181 66.9641 172.771 52.4884C195.266 44.6607 217.183 35.3004 239.517 27.0392C259.355 19.7022 282.661 10.3452 304.264 13.5718C315.092 15.1884 324.883 21.8868 335.095 25.6544C344.17 29.002 353.501 31.5866 362.967 33.5628C383.676 37.8884 404.883 39.2429 425.536 43.8844C455.347 50.5828 481.874 64.7056 506.319 82.8111" stroke="url(#paint36_radial_339_1134)" stroke-width="0.3" stroke-miterlimit="10"></path><path d="M-425.463 -0.668701C-358.526 31.9327 -280.449 34.1678 -207.369 35.66C-185.688 36.1037 -164.188 37.643 -142.591 38.6211C-131.222 39.1353 -118.125 30.343 -107.819 25.6443C-92.3924 18.6098 -76.777 11.7904 -60.4522 7.08842C-44.5914 2.52086 -27.6748 -0.214972 -11.2289 2.56455C-3.22616 3.91902 4.51766 6.61788 11.5385 10.7015C21.5251 16.5159 27.9676 25.036 36.0712 32.9578C72.4599 68.5404 128.425 56.7602 171.946 43.5818C194.948 36.6179 217.43 28.1079 240.234 20.5424C260.92 13.6793 284.364 5.18275 306.539 7.76061C318.2 9.11845 328.715 16.0118 339.871 19.5139C348.678 22.28 357.726 24.1554 366.865 25.3956C387.239 28.1617 407.931 27.8122 428.18 31.6033C459.616 37.4884 486.533 53.732 510.753 74.1163" stroke="url(#paint37_radial_339_1134)" stroke-width="0.3" stroke-miterlimit="10"></path><path d="M-430.961 -10.0549C-361.778 21.0004 -283.305 28.4618 -208.254 30.0045C-187.071 30.438 -164.734 31.7824 -143.594 29.6617C-131.832 28.482 -119.65 19.3233 -109.071 14.1037C-93.503 6.42391 -77.511 -0.741681 -60.6953 -5.24202C-46.0012 -9.17436 -30.3421 -11.1069 -15.3085 -7.94424C-7.89085 -6.38475 -0.769127 -3.60187 5.69356 0.367439C15.0816 6.1315 21.3291 14.4163 29.1771 21.8911C66.6351 57.5745 123.232 48.8394 168.72 37.0188C194.308 30.3708 219.319 21.7634 244.662 14.2718C265.546 8.09767 289.087 0.454824 311.158 3.46289C322.321 4.98541 332.392 11.3477 343.286 14.255C351.783 16.5236 360.502 17.7806 369.268 18.3688C389.931 19.7602 410.731 17.6529 431.259 21.1046C463.206 26.4755 489.575 45.0482 512.624 66.9617" stroke="url(#paint38_radial_339_1134)" stroke-width="0.3" stroke-miterlimit="10"></path><path d="M-432.455 -16.9118C-362.767 12.2917 -285.316 24.9592 -210.01 26.6497C-188.755 27.127 -164.27 28.542 -143.49 22.8754C-131.059 19.4841 -119.105 9.70036 -107.615 3.72455C-92.8575 -3.95191 -77.4573 -10.8654 -61.2468 -14.8381C-47.4237 -18.226 -32.8069 -19.4628 -18.8594 -16.0245C-0.234586 -11.4334 10.1992 0.753454 23.5987 13.2798C62.1361 49.306 119.708 42.7185 166.955 31.987C193.135 26.038 218.777 18.0524 244.658 10.9641C266.229 5.0555 289.978 -2.22437 312.617 0.128313C323.831 1.29457 333.64 7.36785 344.554 9.94235C353.371 12.0228 362.419 12.7454 371.461 12.6815C391.508 12.5404 411.484 8.94414 431.488 11.9993C463.882 16.9433 489.534 38.2888 511.205 61.5601" stroke="url(#paint39_radial_339_1134)" stroke-width="0.3" stroke-miterlimit="10"></path><path d="M-428.968 -20.739C-359.789 6.66973 -283.944 24.298 -209.341 26.0693C-188.255 26.57 -164.344 26.8255 -144.365 18.9339C-131.587 13.8857 -120.044 3.88685 -107.919 -2.73763C-93.7256 -10.4948 -78.7491 -17.331 -62.9421 -21.0448C-49.7881 -24.1369 -35.9582 -24.9839 -22.7672 -21.6028C-5.72612 -17.2335 5.40706 -6.4952 17.5423 5.4665C57.6466 44.9949 119.244 38.9619 169.705 28.3278C196.204 22.7453 222.213 15.173 248.43 8.44432C269.93 2.92897 293.625 -4.04505 316.063 -1.51087C326.554 -0.324451 335.727 5.33206 346.08 7.32176C354.419 8.92494 362.933 9.00897 371.376 8.32333C390.482 6.77392 409.325 1.78288 428.589 4.51199C461.191 9.12996 485.808 33.8029 505.754 58.1161" stroke="url(#paint40_radial_339_1134)" stroke-width="0.3" stroke-miterlimit="10"></path><path d="M423.381 -0.980225C440.742 8.57166 432.171 32.1825 427.073 46.4733C418.623 70.1682 407.971 93.0497 402.322 117.676C397.389 139.186 396.219 161.782 402.988 183.046C406.132 192.914 415.264 203.212 412.746 213.887C410.147 224.904 399.467 233.686 391.28 240.65C378.549 251.476 364.746 260.957 351.875 271.611C342.483 279.385 332.221 288.124 326.522 299.144C324.158 303.719 321.942 309.553 322.92 314.793C324.033 320.752 329.514 326.446 332.961 331.403C339.081 340.209 345.365 348.9 351.535 357.669C362.124 372.713 373.341 388.368 378.586 406.228C383.765 423.86 381.256 441.868 375.197 458.945C371.851 468.376 367.44 475.125 361.313 483.161C355.927 490.222 350.634 497.875 347.823 506.405C344.232 517.319 346.942 526.548 354.787 534.644C363.475 543.608 375.422 549.735 380.16 561.956C387.494 580.868 373.492 601.329 363.553 616.316" stroke="url(#paint41_radial_339_1134)" stroke-width="0.3" stroke-miterlimit="10"></path><path d="M411.307 -1.74463C427.091 7.45771 418.301 30.2316 413.641 43.3125C405.561 66.0092 395.672 88.0235 390.386 111.634C385.584 133.087 384.7 155.592 391.472 176.733C394.75 186.967 403.987 197.652 400.16 208.74C396.559 219.172 386.065 226.993 377.639 233.386C364.727 243.179 350.866 251.649 337.743 261.15C327.053 268.887 315.429 277.512 308.624 289.08C305.917 293.681 302.864 300.844 304.484 306.392C305.994 311.568 310.957 316.855 313.95 321.167C320.345 330.38 326.986 339.417 333.573 348.492C344.014 362.877 355.13 377.581 361.452 394.352C368.136 412.085 366.899 430.379 360.493 448.024C350.914 474.421 314.639 497.205 338.321 526.714C346.307 536.663 357.423 544.359 362.104 556.674C369.942 577.283 355.006 598.531 343.64 614.355" stroke="url(#paint42_radial_339_1134)" stroke-width="0.3" stroke-miterlimit="10"></path><path d="M399.68 -0.67749C414.202 7.85938 404.296 30.5728 400.009 42.1312C392.276 62.9827 383.365 83.414 378.573 105.223C373.947 126.266 373.207 148.371 379.942 169.062C383.079 178.691 391.66 189.059 388.705 199.495C385.52 210.728 373.671 218.955 364.7 225.281C351.24 234.769 336.805 242.778 323.109 251.916C312.067 259.287 299.595 267.662 292.511 279.251C289.397 284.343 286.69 290.907 288.177 296.95C289.421 302.018 294.014 307.08 297.006 311.442C303.257 320.554 309.821 329.44 316.405 338.31C327.306 353.001 339.118 367.819 346.216 384.836C353.318 401.856 352.82 419.562 346.179 436.672C339.222 454.593 322.242 465.933 316.206 484.536C312.148 497.045 315.187 508.567 322.467 519.09C330.372 530.511 341.351 540.247 345.608 553.856C352.518 575.947 337.578 596.967 324.891 613.53" stroke="url(#paint43_radial_339_1134)" stroke-width="0.3" stroke-miterlimit="10"></path><path d="M388.346 1.45654C401.086 8.79354 390.726 30.2029 386.971 39.8254C379.264 59.5677 370.767 79.0311 366.352 99.8591C362.229 119.309 361.812 139.542 367.71 158.679C370.71 168.416 379.102 178.617 377.075 189.13C374.697 201.448 361.712 210.247 352.081 216.754C338.188 226.137 323.289 233.928 309.139 242.909C297.589 250.239 285 258.49 277.565 270.294C274.371 275.369 271.419 282.504 272.824 288.709C274.075 294.231 279.163 299.904 282.223 304.455C287.915 312.928 293.934 321.176 300.024 329.37C320.945 357.531 346.839 388.042 331.634 424.969C323.974 443.569 305.965 454.979 299.902 474.752C295.77 488.229 299.237 500.954 306.402 512.667C314.327 525.627 325.373 537.145 329.418 552.152C335.723 575.537 320.925 596.506 307.004 613.745" stroke="url(#paint44_radial_339_1134)" stroke-width="0.3" stroke-miterlimit="10"></path><path d="M377.166 3.90527C388.047 9.8105 376.873 30.2318 373.749 37.6427C366.12 55.7348 358.151 73.716 354.035 93.0147C350.131 111.315 349.862 130.338 355.35 148.353C358.376 158.288 366.446 168.331 364.768 179.062C362.741 192.026 349.647 201.248 339.597 208.034C325.343 217.656 309.97 225.487 295.4 234.602C283.43 242.094 270.397 250.594 262.855 262.882C259.449 268.427 256.691 275.868 258.094 282.536C259.244 287.998 263.857 293.581 266.762 298.158C272.112 306.591 277.852 314.768 283.702 322.861C303.423 350.139 331.339 381.393 314.798 416.925C306.234 435.319 288.1 446.555 282.152 466.775C277.885 481.291 281.85 495.178 289.119 507.953C297.314 522.348 308.746 535.406 312.952 551.76C319.23 576.171 304.738 597.167 289.725 614.943" stroke="url(#paint45_radial_339_1134)" stroke-width="0.3" stroke-miterlimit="10"></path><path d="M365.985 5.90649C374.683 10.2388 362.652 29.7929 360.258 34.8915C352.589 51.2527 345.1 67.7584 341.213 85.4943C337.464 102.598 337.269 120.388 342.289 137.26C345.346 147.534 353.059 157.466 351.734 168.551C350.08 182.388 337.057 192.36 326.469 199.75C311.906 209.914 296.055 218.068 281.095 227.61C268.664 235.535 255.241 244.596 247.656 257.61C244.078 263.747 241.448 271.753 242.918 278.979C244.031 284.45 247.921 289.902 250.642 294.644C255.5 303.114 260.816 311.308 266.287 319.394C284.613 346.494 313.298 378.974 294.851 413.125C285.201 430.989 267.256 441.992 261.714 462.562C257.565 477.965 262.42 492.73 270.05 506.15C278.853 521.631 290.995 535.811 295.742 553.291C302.511 578.209 288.617 599.041 272.79 617.025" stroke="url(#paint46_radial_339_1134)" stroke-width="0.3" stroke-miterlimit="10"></path><path d="M354.654 6.70239C360.424 10.097 348.417 27.248 346.581 30.6863C338.696 45.451 331.493 60.693 327.704 77.0778C323.978 93.1835 323.773 109.992 328.403 125.94C331.776 137.569 339.705 148.169 337.257 160.816C334.674 174.159 323.265 184.061 312.929 191.818C297.99 203.034 281.443 211.9 265.922 222.255C252.818 230.997 238.797 241.06 231.133 255.216C218.793 278.017 235.444 300.972 247.173 320.473C263.982 348.422 291.503 382.483 270.468 415.396C260.071 431.66 243.154 442.207 237.939 461.885C233.665 478.011 239.509 493.465 247.801 507.225C257.63 523.532 271.049 538.29 277.062 556.648C285.222 581.549 272.381 601.984 255.922 619.918" stroke="url(#paint47_radial_339_1134)" stroke-width="0.3" stroke-miterlimit="10"></path><path d="M343.039 5.53345C345.218 9.72122 333.786 22.7887 331.603 26.3513C323.712 39.244 317.007 52.9937 313.322 67.7114C309.583 82.6509 309.182 98.3299 313.069 113.283C316.136 125.07 323.348 135.768 322.195 148.381C320.823 163.405 309.616 175.219 298.604 184.425C283.197 197.304 265.645 207.353 249.32 218.979C235.221 229.018 220.373 240.539 212.518 256.38C200.867 279.869 214.031 304.334 224.599 325.686C239.384 355.562 264.677 391.857 241.297 424.015C230.238 439.226 213.389 449.178 209.132 468.79C205.248 486.683 214.576 502.924 224.767 516.912C236.038 532.383 250.376 546.778 257.279 564.947C266.149 588.296 254.942 606.855 238.88 623.546" stroke="url(#paint48_radial_339_1134)" stroke-width="0.3" stroke-miterlimit="10"></path><path d="M330.981 1.63672C316.186 17.8702 303.688 35.9993 297.797 57.449C293.839 71.8541 293.224 87.0928 296.654 101.673C299.791 115.016 306.808 126.819 304.872 141.057C302.555 158.076 290.205 171.584 277.794 182.454C249.808 206.965 209.885 224.657 192.252 259.053C179.528 283.878 189.162 312.194 198.106 336.665C210.561 370.732 232.303 410.274 204.609 442.801C193.53 455.815 176.849 465.145 174.233 483.56C171.828 500.496 183.574 515.495 194.125 527.35C208.133 543.082 226.052 557.148 235.604 576.302C245.776 596.7 236.364 613.212 221.368 627.823" stroke="url(#paint49_radial_339_1134)" stroke-width="0.3" stroke-miterlimit="10"></path><path d="M306.699 -1.97148C301.107 -2.24372 295.048 10.3398 292.721 14.3057C285.414 26.7547 279.843 40.3532 276.181 54.308C272.765 67.325 271.036 80.9134 272.089 94.3674C273.118 107.556 275.347 119.333 271.571 132.555C265.986 152.102 252.408 168.06 238.252 182.116C208.911 211.245 166.406 236.17 151.5 276.667C145.408 293.219 146.712 308.004 153.34 323.814C157.015 332.583 160.935 341.248 164.799 349.939C179.52 383.068 196.689 421.985 174.298 455.85C165.323 469.422 149.392 478.039 147.126 495.435C144.977 511.934 156.5 526.212 166.722 537.794C179.617 552.404 195.724 565.562 204.782 583.117C214.752 602.439 206.749 618.427 192.321 632.704" stroke="url(#paint50_radial_339_1134)" stroke-width="0.3" stroke-miterlimit="10"></path><path d="M272.378 3.2112C263.041 0.0586045 251.161 56.1566 249.863 62.2399C247.005 75.6334 244.779 89.2151 243.763 102.881C242.805 115.777 241.245 127.604 235.798 139.694C227.254 158.646 213.33 174.708 198.975 189.486C171.588 217.682 132.738 245.073 120.895 284.397C117.929 294.241 116.773 305.715 119.103 315.845C120.434 321.636 123.999 326.322 126.927 331.397C131.692 339.655 136.184 348.074 140.182 356.732C155.865 390.674 163.148 429.13 144.456 463.486C137.368 476.51 122.946 485.292 121.658 501.005C120.397 516.384 131.605 529.697 141.332 540.288C154.066 554.155 169.409 566.446 179.305 582.663C190.344 600.755 185.539 616.313 171.675 631.094" stroke="url(#paint51_radial_339_1134)" stroke-width="0.3" stroke-miterlimit="10"></path><path d="M231.052 13.4126C225.931 11.9539 220.413 74.468 219.703 80.2522C218.019 93.9818 216.149 107.738 213.194 121.263C206.092 153.733 182.763 179.357 160.204 202.508C136.169 227.174 101.189 254.882 95.9103 291.217C94.5686 300.446 95.0529 312.67 99.6258 321.066C101.956 325.341 105.678 329.045 108.456 333.058C113.624 340.526 118.039 348.525 121.519 356.914C136.354 392.665 131.233 432.227 114.838 466.492C109.027 478.632 96.1188 488.274 96.5492 502.659C96.9896 517.41 109.182 529.849 118.98 539.549C132.958 553.39 149.737 565.644 160.544 582.331C170.561 597.795 168.301 611.531 157.047 625.409" stroke="url(#paint52_radial_339_1134)" stroke-width="0.3" stroke-miterlimit="10"></path><path d="M185.422 24.6699C181.841 25.7051 185.368 46.2776 185.641 49.5949C187.063 67.0013 188.26 84.4616 187.86 101.935C187.544 115.698 186.498 129.932 182.1 143.07C178.001 155.321 169.679 165.921 161.558 175.769C149.585 190.292 136.222 203.537 122.998 216.904C103.206 236.909 72.8731 263.457 75.5093 294.754C76.7231 309.166 85.1697 318.126 93.6768 328.767C99.4098 335.939 103.831 344.093 106.605 352.849C118.613 390.727 100.156 432.262 84.8065 466.332C79.6317 477.816 69.1206 488.091 71.4642 501.467C73.9692 515.775 87.0359 527.243 97.325 536.384C111.632 549.096 127.705 560.331 140.086 575.046C151.72 588.873 155.076 602.646 145.207 618.217" stroke="url(#paint53_radial_339_1134)" stroke-width="0.3" stroke-miterlimit="10"></path><path d="M138.196 33.0354C137.369 35.136 139.178 39.5557 139.837 42.0193C141.679 48.9261 143.613 55.806 145.385 62.7296C150.257 81.7728 154.47 101.162 156 120.794C157.127 135.219 157.342 151.2 151.404 164.722C146.35 176.223 135.203 184.709 126.283 193.108C113.818 204.845 100.953 216.171 88.7373 228.173C72.1064 244.514 46.2692 269.849 57.3653 295.739C62.7419 308.282 74.5241 314.379 82.8126 324.462C87.8664 330.616 91.3398 337.889 92.9135 345.696C96.6559 364.276 90.3142 383.746 83.4312 400.813C74.7628 422.3 63.5119 442.624 54.1575 463.801C48.9995 475.48 40.5731 487.227 45.8186 500.251C51.3599 514.004 64.9309 524.54 76.0809 533.555C92.0997 546.501 109.881 558.127 123.647 573.607C134.013 585.263 139.198 597.255 132.934 612.168" stroke="url(#paint54_radial_339_1134)" stroke-width="0.3" stroke-miterlimit="10"></path><path d="M92.0679 34.5496C92.8312 38.1122 94.9092 41.7286 96.3887 45.1198C100.128 53.7037 103.773 62.328 107.179 71.0464C115.047 91.1954 122.108 111.976 125.736 133.352C128.289 148.379 130.128 166.568 122.31 180.446C116.136 191.403 102.364 197.738 92.6025 204.894C79.1391 214.765 65.7397 224.982 53.8667 236.756C38.5977 251.897 20.8875 275.004 38.9104 295.015C47.5755 304.637 60.5648 308.176 69.2938 317.543C74.6603 323.304 77.7336 330.325 78.3456 338.176C79.8654 357.7 68.7255 377.285 59.5123 393.683C46.8089 416.292 31.9804 437.896 21.7147 461.796C16.5903 473.728 11.5735 484.644 18.137 497.07C25.6185 511.229 39.7141 521.783 52.1014 531.405C68.4565 544.11 85.8406 555.833 100.602 570.446C111.738 581.477 120.182 593.735 116.97 609.82" stroke="url(#paint55_radial_339_1134)" stroke-width="0.3" stroke-miterlimit="10"></path><path d="M49.7555 25.2495C67.8928 61.269 89.2781 95.2451 98.9856 134.962C102.647 149.945 106.084 169.506 96.9547 183.313C89.5707 194.478 73.9351 198.773 62.8894 205.408C48.2996 214.17 33.8678 223.97 21.7999 236.06C4.86642 253.026 -5.35553 276.653 17.4152 293.61C33.2289 305.386 62.1362 307.5 60.5491 333.03C59.2882 353.311 43.7165 372.676 32.5531 388.567C16.7561 411.052 -1.06835 433.197 -11.6501 458.784C-16.7947 471.22 -19.6225 482.251 -12.6286 494.653C-4.5956 508.897 9.18045 519.853 21.6015 530.077C38.9788 544.382 57.8288 557.321 73.6022 573.468C84.8295 584.959 94.3588 597.159 94.1134 613.813" stroke="url(#paint56_radial_339_1134)" stroke-width="0.3" stroke-miterlimit="10"></path><path d="M13.9462 1.18384C39.1446 37.6504 64.3767 77.1014 77.3727 119.782C81.8145 134.369 86.7708 154.928 76.6666 168.406C74.0338 171.914 70.6578 174.069 66.8347 176.052C55.7419 181.809 44.3094 186.501 33.415 192.705C16.7472 202.2 0.294582 213.359 -12.3685 227.949C-20.9193 237.803 -28.6362 250.501 -27.7452 264.062C-26.9516 276.128 -19.1406 285.63 -9.71219 292.452C-1.66914 298.27 7.43646 302.028 16.7304 305.358C21.532 307.079 26.4479 308.787 30.4325 312.097C35.5065 316.319 37.8367 322.15 37.2045 328.704C36.2294 338.746 29.9516 348.285 24.4204 356.371C17.3423 366.716 9.35644 376.416 1.43107 386.119C-16.4069 407.952 -36.3565 430.296 -46.844 456.844C-52.5266 471.232 -52.9907 483.876 -45.0081 497.596C-36.8138 511.675 -24.5609 523.26 -12.8158 534.348C4.09416 550.316 22.1574 565.135 37.8064 582.393C49.4608 595.249 59.4002 609.113 61.1117 626.734" stroke="url(#paint57_radial_339_1134)" stroke-width="0.3" stroke-miterlimit="10"></path><path d="M-6.3567 -15.8699C3.58952 -3.28976 11.1147 12.1673 18.5525 26.2767C30.3313 48.6171 41.3401 72.1103 47.2109 96.7831C50.6978 111.437 53.7308 130.941 43.64 143.843C40.7315 147.561 37.0764 149.685 33.0583 151.99C23.5895 157.422 14.3461 163.203 5.44223 169.521C-11.2121 181.345 -27.0864 195.004 -39.0804 211.664C-57.0427 236.62 -62.036 267.373 -39.4166 291.148C-32.5067 298.411 -24.0501 304.484 -15.1799 309.136C-10.654 311.509 -5.62708 313.142 -1.60555 316.406C3.90891 320.883 6.46778 326.966 5.68432 334.051C3.52561 353.518 -14.8134 371.912 -26.609 386.163C-44.7563 408.09 -64.6621 429.842 -77.1907 455.654C-84.0771 469.844 -84.9076 481.399 -77.1874 495.606C-68.8619 510.925 -55.9365 523.784 -43.6466 535.941C-26.9048 552.501 -9.26863 568.196 6.40053 585.808C18.8921 599.847 29.9278 615.354 32.2647 634.384" stroke="url(#paint58_radial_339_1134)" stroke-width="0.3" stroke-miterlimit="10"></path><path d="M-27.3668 -24.4543C-27.1382 -20.2632 -24.0514 -15.4503 -22.3701 -11.6054C-18.0157 -1.65351 -13.7219 8.32521 -9.73731 18.4317C-0.719137 41.3064 7.43488 65.0887 10.7368 89.5464C12.983 106.18 13.5849 126.302 2.67698 140.284C0.0508856 143.648 -3.02582 145.991 -6.47909 148.431C-15.2854 154.652 -24.0548 160.799 -32.2861 167.786C-47.1348 180.39 -61.1093 194.446 -71.6305 210.935C-88.7758 237.799 -93.1672 270.024 -71.8659 296.004C-64.5996 304.867 -54.8013 313.632 -44.5995 318.966C-41.19 320.751 -37.7165 321.827 -34.5255 324.112C-29.1993 327.923 -25.8402 333.113 -25.82 339.771C-25.7696 357.265 -42.5787 374.58 -52.8376 387.093C-69.0717 406.893 -86.4691 426.101 -99.4718 448.283C-103.349 454.894 -107.871 461.932 -107.649 469.857C-107.485 475.783 -105.417 481.382 -102.908 486.669C-95.0434 503.259 -81.1766 517.099 -68.4765 530.035C-51.8053 547.015 -34.1455 563.131 -18.6378 581.216C-6.2336 595.682 4.8626 611.27 7.34411 630.542" stroke="url(#paint59_radial_339_1134)" stroke-width="0.3" stroke-miterlimit="10"></path></g></g><defs><radialGradient id="paint0_radial_339_1134" cx="0" cy="0" r="1" gradientUnits="userSpaceOnUse" gradientTransform="translate(30.3263 319.561) rotate(90) scale(345.791 484.175)"><stop stop-color="white"></stop><stop offset="0.592173" stop-color="white" stop-opacity="0.134615"></stop></radialGradient><radialGradient id="paint1_radial_339_1134" cx="0" cy="0" r="1" gradientUnits="userSpaceOnUse" gradientTransform="translate(56.1711 614.133) rotate(90) scale(30.5745 444.811)"><stop stop-color="white"></stop><stop offset="0.592173" stop-color="white" stop-opacity="0.134615"></stop></radialGradient><radialGradient id="paint2_radial_339_1134" cx="0" cy="0" r="1" gradientUnits="userSpaceOnUse" gradientTransform="translate(57.0714 591.234) rotate(90) scale(31.3909 443.96)"><stop stop-color="white"></stop><stop offset="0.592173" stop-color="white" stop-opacity="0.134615"></stop></radialGradient><radialGradient id="paint3_radial_339_1134" cx="0" cy="0" r="1" gradientUnits="userSpaceOnUse" gradientTransform="translate(54.8401 569.448) rotate(90) scale(30.4034 438.889)"><stop stop-color="white"></stop><stop offset="0.592173" stop-color="white" stop-opacity="0.134615"></stop></radialGradient><radialGradient id="paint4_radial_339_1134" cx="0" cy="0" r="1" gradientUnits="userSpaceOnUse" gradientTransform="translate(51.4413 548.1) rotate(90) scale(28.9341 431.603)"><stop stop-color="white"></stop><stop offset="0.592173" stop-color="white" stop-opacity="0.134615"></stop></radialGradient><radialGradient id="paint5_radial_339_1134" cx="0" cy="0" r="1" gradientUnits="userSpaceOnUse" gradientTransform="translate(48.8587 526.846) rotate(90) scale(28.0146 424.11)"><stop stop-color="white"></stop><stop offset="0.592173" stop-color="white" stop-opacity="0.134615"></stop></radialGradient><radialGradient id="paint6_radial_339_1134" cx="0" cy="0" r="1" gradientUnits="userSpaceOnUse" gradientTransform="translate(49.0671 507.521) rotate(90) scale(30.6874 418.415)"><stop stop-color="white"></stop><stop offset="0.592173" stop-color="white" stop-opacity="0.134615"></stop></radialGradient><radialGradient id="paint7_radial_339_1134" cx="0" cy="0" r="1" gradientUnits="userSpaceOnUse" gradientTransform="translate(54.0514 486.047) rotate(90) scale(34.0317 416.532)"><stop stop-color="white"></stop><stop offset="0.592173" stop-color="white" stop-opacity="0.134615"></stop></radialGradient><radialGradient id="paint8_radial_339_1134" cx="0" cy="0" r="1" gradientUnits="userSpaceOnUse" gradientTransform="translate(65.7222 460.685) rotate(90) scale(37.4126 420.409)"><stop stop-color="white"></stop><stop offset="0.592173" stop-color="white" stop-opacity="0.134615"></stop></radialGradient><radialGradient id="paint9_radial_339_1134" cx="0" cy="0" r="1" gradientUnits="userSpaceOnUse" gradientTransform="translate(72.2583 442.001) rotate(90) scale(31.4928 423.067)"><stop stop-color="white"></stop><stop offset="0.592173" stop-color="white" stop-opacity="0.134615"></stop></radialGradient><radialGradient id="paint10_radial_339_1134" cx="0" cy="0" r="1" gradientUnits="userSpaceOnUse" gradientTransform="translate(74.2572 427.949) rotate(90) scale(29.629 428.583)"><stop stop-color="white"></stop><stop offset="0.592173" stop-color="white" stop-opacity="0.134615"></stop></radialGradient><radialGradient id="paint11_radial_339_1134" cx="0" cy="0" r="1" gradientUnits="userSpaceOnUse" gradientTransform="translate(72.4841 415.209) rotate(90) scale(28.7344 436.097)"><stop stop-color="white"></stop><stop offset="0.592173" stop-color="white" stop-opacity="0.134615"></stop></radialGradient><radialGradient id="paint12_radial_339_1134" cx="0" cy="0" r="1" gradientUnits="userSpaceOnUse" gradientTransform="translate(67.7098 402.981) rotate(90) scale(28.1428 444.755)"><stop stop-color="white"></stop><stop offset="0.592173" stop-color="white" stop-opacity="0.134615"></stop></radialGradient><radialGradient id="paint13_radial_339_1134" cx="0" cy="0" r="1" gradientUnits="userSpaceOnUse" gradientTransform="translate(60.6894 391.611) rotate(90) scale(28.4896 453.689)"><stop stop-color="white"></stop><stop offset="0.592173" stop-color="white" stop-opacity="0.134615"></stop></radialGradient><radialGradient id="paint14_radial_339_1134" cx="0" cy="0" r="1" gradientUnits="userSpaceOnUse" gradientTransform="translate(52.1938 379.451) rotate(90) scale(30.3049 462.05)"><stop stop-color="white"></stop><stop offset="0.592173" stop-color="white" stop-opacity="0.134615"></stop></radialGradient><radialGradient id="paint15_radial_339_1134" cx="0" cy="0" r="1" gradientUnits="userSpaceOnUse" gradientTransform="translate(42.9864 364.173) rotate(90) scale(35.3519 468.975)"><stop stop-color="white"></stop><stop offset="0.592173" stop-color="white" stop-opacity="0.134615"></stop></radialGradient><radialGradient id="paint16_radial_339_1134" cx="0" cy="0" r="1" gradientUnits="userSpaceOnUse" gradientTransform="translate(33.8442 348.768) rotate(90) scale(40.146 473.61)"><stop stop-color="white"></stop><stop offset="0.592173" stop-color="white" stop-opacity="0.134615"></stop></radialGradient><radialGradient id="paint17_radial_339_1134" cx="0" cy="0" r="1" gradientUnits="userSpaceOnUse" gradientTransform="translate(25.5163 333.01) rotate(90) scale(44.3883 475.092)"><stop stop-color="white"></stop><stop offset="0.592173" stop-color="white" stop-opacity="0.134615"></stop></radialGradient><radialGradient id="paint18_radial_339_1134" cx="0" cy="0" r="1" gradientUnits="userSpaceOnUse" gradientTransform="translate(18.7764 316.667) rotate(90) scale(47.7779 472.563)"><stop stop-color="white"></stop><stop offset="0.592173" stop-color="white" stop-opacity="0.134615"></stop></radialGradient><radialGradient id="paint19_radial_339_1134" cx="0" cy="0" r="1" gradientUnits="userSpaceOnUse" gradientTransform="translate(14.4297 299.357) rotate(90) scale(50.0633 465.144)"><stop stop-color="white"></stop><stop offset="0.592173" stop-color="white" stop-opacity="0.134615"></stop></radialGradient><radialGradient id="paint20_radial_339_1134" cx="0" cy="0" r="1" gradientUnits="userSpaceOnUse" gradientTransform="translate(14.8109 278.082) rotate(90) scale(53.1252 456.978)"><stop stop-color="white"></stop><stop offset="0.592173" stop-color="white" stop-opacity="0.134615"></stop></radialGradient><radialGradient id="paint21_radial_339_1134" cx="0" cy="0" r="1" gradientUnits="userSpaceOnUse" gradientTransform="translate(18.885 256.125) rotate(90) scale(54.221 452.649)"><stop stop-color="white"></stop><stop offset="0.592173" stop-color="white" stop-opacity="0.134615"></stop></radialGradient><radialGradient id="paint22_radial_339_1134" cx="0" cy="0" r="1" gradientUnits="userSpaceOnUse" gradientTransform="translate(25.4782 234.641) rotate(90) scale(53.8812 450.475)"><stop stop-color="white"></stop><stop offset="0.592173" stop-color="white" stop-opacity="0.134615"></stop></radialGradient><radialGradient id="paint23_radial_339_1134" cx="0" cy="0" r="1" gradientUnits="userSpaceOnUse" gradientTransform="translate(33.4222 214.678) rotate(90) scale(52.5324 448.765)"><stop stop-color="white"></stop><stop offset="0.592173" stop-color="white" stop-opacity="0.134615"></stop></radialGradient><radialGradient id="paint24_radial_339_1134" cx="0" cy="0" r="1" gradientUnits="userSpaceOnUse" gradientTransform="translate(41.5405 197.089) rotate(90) scale(50.4053 445.836)"><stop stop-color="white"></stop><stop offset="0.592173" stop-color="white" stop-opacity="0.134615"></stop></radialGradient><radialGradient id="paint25_radial_339_1134" cx="0" cy="0" r="1" gradientUnits="userSpaceOnUse" gradientTransform="translate(48.6626 182.487) rotate(90) scale(47.4888 439.999)"><stop stop-color="white"></stop><stop offset="0.592173" stop-color="white" stop-opacity="0.134615"></stop></radialGradient><radialGradient id="paint26_radial_339_1134" cx="0" cy="0" r="1" gradientUnits="userSpaceOnUse" gradientTransform="translate(53.6209 164.474) rotate(90) scale(50.598 429.569)"><stop stop-color="white"></stop><stop offset="0.592173" stop-color="white" stop-opacity="0.134615"></stop></radialGradient><radialGradient id="paint27_radial_339_1134" cx="0" cy="0" r="1" gradientUnits="userSpaceOnUse" gradientTransform="translate(55.5601 148.855) rotate(90) scale(50.9107 417.447)"><stop stop-color="white"></stop><stop offset="0.592173" stop-color="white" stop-opacity="0.134615"></stop></radialGradient><radialGradient id="paint28_radial_339_1134" cx="0" cy="0" r="1" gradientUnits="userSpaceOnUse" gradientTransform="translate(56.3985 135.543) rotate(90) scale(48.5946 410.883)"><stop stop-color="white"></stop><stop offset="0.592173" stop-color="white" stop-opacity="0.134615"></stop></radialGradient><radialGradient id="paint29_radial_339_1134" cx="0" cy="0" r="1" gradientUnits="userSpaceOnUse" gradientTransform="translate(56.4641 122.711) rotate(90) scale(46.6802 409.17)"><stop stop-color="white"></stop><stop offset="0.592173" stop-color="white" stop-opacity="0.134615"></stop></radialGradient><radialGradient id="paint30_radial_339_1134" cx="0" cy="0" r="1" gradientUnits="userSpaceOnUse" gradientTransform="translate(55.8648 110.544) rotate(90) scale(45.1746 411.46)"><stop stop-color="white"></stop><stop offset="0.592173" stop-color="white" stop-opacity="0.134615"></stop></radialGradient><radialGradient id="paint31_radial_339_1134" cx="0" cy="0" r="1" gradientUnits="userSpaceOnUse" gradientTransform="translate(54.7171 98.5551) rotate(90) scale(43.5778 416.906)"><stop stop-color="white"></stop><stop offset="0.592173" stop-color="white" stop-opacity="0.134615"></stop></radialGradient><radialGradient id="paint32_radial_339_1134" cx="0" cy="0" r="1" gradientUnits="userSpaceOnUse" gradientTransform="translate(53.1303 86.991) rotate(90) scale(41.8538 424.646)"><stop stop-color="white"></stop><stop offset="0.592173" stop-color="white" stop-opacity="0.134615"></stop></radialGradient><radialGradient id="paint33_radial_339_1134" cx="0" cy="0" r="1" gradientUnits="userSpaceOnUse" gradientTransform="translate(51.2199 75.9746) rotate(90) scale(40.0918 433.836)"><stop stop-color="white"></stop><stop offset="0.592173" stop-color="white" stop-opacity="0.134615"></stop></radialGradient><radialGradient id="paint34_radial_339_1134" cx="0" cy="0" r="1" gradientUnits="userSpaceOnUse" gradientTransform="translate(49.1049 65.6819) rotate(90) scale(38.3078 443.629)"><stop stop-color="white"></stop><stop offset="0.592173" stop-color="white" stop-opacity="0.134615"></stop></radialGradient><radialGradient id="paint35_radial_339_1134" cx="0" cy="0" r="1" gradientUnits="userSpaceOnUse" gradientTransform="translate(46.8981 56.2761) rotate(90) scale(36.5578 453.178)"><stop stop-color="white"></stop><stop offset="0.592173" stop-color="white" stop-opacity="0.134615"></stop></radialGradient><radialGradient id="paint36_radial_339_1134" cx="0" cy="0" r="1" gradientUnits="userSpaceOnUse" gradientTransform="translate(44.7046 46.7798) rotate(90) scale(36.0313 461.615)"><stop stop-color="white"></stop><stop offset="0.592173" stop-color="white" stop-opacity="0.134615"></stop></radialGradient><radialGradient id="paint37_radial_339_1134" cx="0" cy="0" r="1" gradientUnits="userSpaceOnUse" gradientTransform="translate(42.6448 36.7238) rotate(90) scale(37.3925 468.108)"><stop stop-color="white"></stop><stop offset="0.592173" stop-color="white" stop-opacity="0.134615"></stop></radialGradient><radialGradient id="paint38_radial_339_1134" cx="0" cy="0" r="1" gradientUnits="userSpaceOnUse" gradientTransform="translate(40.8315 28.4534) rotate(90) scale(38.5083 471.793)"><stop stop-color="white"></stop><stop offset="0.592173" stop-color="white" stop-opacity="0.134615"></stop></radialGradient><radialGradient id="paint39_radial_339_1134" cx="0" cy="0" r="1" gradientUnits="userSpaceOnUse" gradientTransform="translate(39.3754 21.745) rotate(90) scale(39.8151 471.83)"><stop stop-color="white"></stop><stop offset="0.592173" stop-color="white" stop-opacity="0.134615"></stop></radialGradient><radialGradient id="paint40_radial_339_1134" cx="0" cy="0" r="1" gradientUnits="userSpaceOnUse" gradientTransform="translate(38.393 17.1683) rotate(90) scale(40.9478 467.361)"><stop stop-color="white"></stop><stop offset="0.592173" stop-color="white" stop-opacity="0.134615"></stop></radialGradient><radialGradient id="paint41_radial_339_1134" cx="0" cy="0" r="1" gradientUnits="userSpaceOnUse" gradientTransform="translate(378.214 307.668) rotate(90) scale(308.648 55.5304)"><stop stop-color="white"></stop><stop offset="0.592173" stop-color="white" stop-opacity="0.134615"></stop></radialGradient><radialGradient id="paint42_radial_339_1134" cx="0" cy="0" r="1" gradientUnits="userSpaceOnUse" gradientTransform="translate(362.176 306.305) rotate(90) scale(308.05 58.1435)"><stop stop-color="white"></stop><stop offset="0.592173" stop-color="white" stop-opacity="0.134615"></stop></radialGradient><radialGradient id="paint43_radial_339_1134" cx="0" cy="0" r="1" gradientUnits="userSpaceOnUse" gradientTransform="translate(347.532 306.426) rotate(90) scale(307.104 59.7748)"><stop stop-color="white"></stop><stop offset="0.592173" stop-color="white" stop-opacity="0.134615"></stop></radialGradient><radialGradient id="paint44_radial_339_1134" cx="0" cy="0" r="1" gradientUnits="userSpaceOnUse" gradientTransform="translate(333.487 307.601) rotate(90) scale(306.144 61.0226)"><stop stop-color="white"></stop><stop offset="0.592173" stop-color="white" stop-opacity="0.134615"></stop></radialGradient><radialGradient id="paint45_radial_339_1134" cx="0" cy="0" r="1" gradientUnits="userSpaceOnUse" gradientTransform="translate(319.772 309.424) rotate(90) scale(305.519 62.052)"><stop stop-color="white"></stop><stop offset="0.592173" stop-color="white" stop-opacity="0.134615"></stop></radialGradient><radialGradient id="paint46_radial_339_1134" cx="0" cy="0" r="1" gradientUnits="userSpaceOnUse" gradientTransform="translate(305.801 311.466) rotate(90) scale(305.559 63.2985)"><stop stop-color="white"></stop><stop offset="0.592173" stop-color="white" stop-opacity="0.134615"></stop></radialGradient><radialGradient id="paint47_radial_339_1134" cx="0" cy="0" r="1" gradientUnits="userSpaceOnUse" gradientTransform="translate(291.497 313.31) rotate(90) scale(306.608 64.7127)"><stop stop-color="white"></stop><stop offset="0.592173" stop-color="white" stop-opacity="0.134615"></stop></radialGradient><radialGradient id="paint48_radial_339_1134" cx="0" cy="0" r="1" gradientUnits="userSpaceOnUse" gradientTransform="translate(275.64 314.539) rotate(90) scale(309.006 67.6743)"><stop stop-color="white"></stop><stop offset="0.592173" stop-color="white" stop-opacity="0.134615"></stop></radialGradient><radialGradient id="paint49_radial_339_1134" cx="0" cy="0" r="1" gradientUnits="userSpaceOnUse" gradientTransform="translate(252.449 314.73) rotate(90) scale(313.093 78.5326)"><stop stop-color="white"></stop><stop offset="0.592173" stop-color="white" stop-opacity="0.134615"></stop></radialGradient><radialGradient id="paint50_radial_339_1134" cx="0" cy="0" r="1" gradientUnits="userSpaceOnUse" gradientTransform="translate(226.782 315.364) rotate(90) scale(317.34 79.9171)"><stop stop-color="white"></stop><stop offset="0.592173" stop-color="white" stop-opacity="0.134615"></stop></radialGradient><radialGradient id="paint51_radial_339_1134" cx="0" cy="0" r="1" gradientUnits="userSpaceOnUse" gradientTransform="translate(195.121 317.089) rotate(90) scale(314.006 77.2574)"><stop stop-color="white"></stop><stop offset="0.592173" stop-color="white" stop-opacity="0.134615"></stop></radialGradient><radialGradient id="paint52_radial_339_1134" cx="0" cy="0" r="1" gradientUnits="userSpaceOnUse" gradientTransform="translate(163.154 319.398) rotate(90) scale(306.011 67.8977)"><stop stop-color="white"></stop><stop offset="0.592173" stop-color="white" stop-opacity="0.134615"></stop></radialGradient><radialGradient id="paint53_radial_339_1134" cx="0" cy="0" r="1" gradientUnits="userSpaceOnUse" gradientTransform="translate(129.533 321.444) rotate(90) scale(296.774 58.4048)"><stop stop-color="white"></stop><stop offset="0.592173" stop-color="white" stop-opacity="0.134615"></stop></radialGradient><radialGradient id="paint54_radial_339_1134" cx="0" cy="0" r="1" gradientUnits="userSpaceOnUse" gradientTransform="translate(100.396 322.602) rotate(90) scale(289.566 56.2344)"><stop stop-color="white"></stop><stop offset="0.592173" stop-color="white" stop-opacity="0.134615"></stop></radialGradient><radialGradient id="paint55_radial_339_1134" cx="0" cy="0" r="1" gradientUnits="userSpaceOnUse" gradientTransform="translate(71.4713 322.185) rotate(90) scale(287.635 56.4639)"><stop stop-color="white"></stop><stop offset="0.592173" stop-color="white" stop-opacity="0.134615"></stop></radialGradient><radialGradient id="paint56_radial_339_1134" cx="0" cy="0" r="1" gradientUnits="userSpaceOnUse" gradientTransform="translate(42.9906 319.531) rotate(90) scale(294.282 59.7904)"><stop stop-color="white"></stop><stop offset="0.592173" stop-color="white" stop-opacity="0.134615"></stop></radialGradient><radialGradient id="paint57_radial_339_1134" cx="0" cy="0" r="1" gradientUnits="userSpaceOnUse" gradientTransform="translate(15.761 313.959) rotate(90) scale(312.775 66.8244)"><stop stop-color="white"></stop><stop offset="0.592173" stop-color="white" stop-opacity="0.134615"></stop></radialGradient><radialGradient id="paint58_radial_339_1134" cx="0" cy="0" r="1" gradientUnits="userSpaceOnUse" gradientTransform="translate(-16.0759 309.257) rotate(90) scale(325.127 66.595)"><stop stop-color="white"></stop><stop offset="0.592173" stop-color="white" stop-opacity="0.134615"></stop></radialGradient><radialGradient id="paint59_radial_339_1134" cx="0" cy="0" r="1" gradientUnits="userSpaceOnUse" gradientTransform="translate(-47.7936 303.044) rotate(90) scale(327.498 59.8636)"><stop stop-color="white"></stop><stop offset="0.592173" stop-color="white" stop-opacity="0.134615"></stop></radialGradient></defs></svg>