<svg xmlns="http://www.w3.org/2000/svg" width="587" height="587" viewBox="0 0 587 587" fill="none"><g opacity="0.6"><mask id="mask0_339_1050" style="mask-type:alpha" maskUnits="userSpaceOnUse" x="0" y="-1" width="587" height="588"><circle cx="293.5" cy="293.5" r="293.5" fill="#D9D9D9"></circle></mask><g mask="url(#mask0_339_1050)"><path d="M-129.176 -19.7628C-65.6491 4.33485 3.57204 25.5631 72.0794 26.9331C91.0087 27.3119 113.014 26.6617 129.717 16.5352C155.098 1.14666 177.918 -17.3606 207.938 -23.0931C219.983 -25.3942 232.479 -25.2995 244.24 -21.5842C260.147 -16.5588 270.234 -5.73162 282.14 5.19977C319.777 39.7522 375.69 35.6044 422.227 26.6711C447.558 21.8099 472.421 14.9285 497.404 8.58998C517.941 3.3784 540.186 -3.29471 561.617 -1.79215C571.287 -1.11348 579.397 3.94343 588.836 5.53437C596.119 6.75914 603.505 6.34878 610.769 5.22818C627.522 2.6429 643.821 -3.38941 661.013 -1.12926C691.64 2.89543 713.481 29.9572 730.259 53.3888C736.143 53.4172 745.222 54.0643 746.28 61.3814C747.127 67.2306 742.573 74.0741 739.781 78.8028C729.558 96.1263 716.97 111.973 708.996 130.581C702.147 146.569 698.973 164.729 707.203 180.853C711.412 189.098 719.509 194.847 722.383 203.726C725.674 213.897 723.568 225.311 721.268 235.453C715.833 259.437 703.83 284.851 707.784 309.931C710.828 329.243 728.44 343.476 738.906 359.228C744.635 367.849 749.391 377.205 747.742 387.827C745.418 402.795 735.473 416.972 728.368 429.98C716.194 452.26 690.493 489.653 711.696 513.656C719.614 522.618 729.745 528.798 733.98 540.598C741.572 561.747 731.848 586.83 724.654 606.556C659.993 586.707 592.566 569.664 524.538 579.008C501.178 582.218 478.728 589.829 455.485 593.209C442.631 595.078 429.339 594.993 417.253 589.778C410.261 586.764 404.226 582.114 397.566 578.503C373.442 565.428 345.496 578.07 322.771 588.38C307.96 595.1 292.89 597.768 276.907 593.699C263.425 590.267 251.276 583.323 238.606 577.814C226.23 572.432 212.96 568.641 199.44 571.732C180.542 576.053 168.968 590.356 155.496 602.85C136.503 620.464 109.537 624.924 84.519 624.899C52.4112 624.87 20.5213 618.216 -10.6676 611.208C-39.9521 604.63 -70.5093 594.665 -100.763 594.444C-100.435 564.948 -96.6452 535.648 -89.8017 506.958C-86.4921 493.081 -82.494 479.369 -77.798 465.896C-73.2694 452.91 -65.6175 439.829 -64.7648 425.946C-63.0626 398.203 -83.5583 372.833 -99.8696 352.479C-118.054 329.786 -139.13 308.191 -152.489 282.108C-157.507 272.307 -161.391 261.568 -161.401 250.425C-161.413 236.22 -154.283 222.129 -149.625 208.979C-141.496 186.033 -133.31 161.535 -118.313 141.989C-112.578 134.514 -105.661 127.904 -97.2326 123.561C-89.268 119.457 -78.9413 119.394 -71.9841 113.456C-59.7246 102.992 -70.1777 84.3521 -76.6896 73.7711C-90.146 51.8925 -108.112 33.0791 -124.228 13.1987C-130.345 5.63854 -154.876 -23.3519 -129.176 -19.7628Z" stroke="url(#paint0_radial_339_1050)" stroke-width="0.3" stroke-miterlimit="10"></path><path d="M-100.157 575.757C-70.3196 576.521 -40.6056 586.026 -11.7126 592.639C17.9382 599.429 48.2838 605.745 78.8505 605.502C104.083 605.3 130.33 599.956 149.97 583.147C163.919 571.208 175.622 557.187 194.441 552.859C207.752 549.797 220.823 553.244 233.102 558.408C245.706 563.711 257.766 570.419 271.087 573.866C287.123 578.017 302.506 575.893 317.753 569.921C345.171 559.182 373.802 550.87 402.528 561.202C411.111 564.289 419.382 568.225 428.212 570.612C442.309 574.422 456.881 574.056 471.174 571.474C496.018 566.988 518.781 555.11 543.869 550.851C568.855 546.609 594.12 547.736 619.163 550.867C658.083 555.728 696.639 563.516 735.376 569.608" stroke="url(#paint1_radial_339_1050)" stroke-width="0.3" stroke-miterlimit="10"></path><path d="M-98.5122 556.621C-70.7372 557.644 -43.3254 566.372 -16.4631 572.755C10.8824 579.251 38.891 585.233 67.146 584.741C92.622 584.299 117.874 577.705 137.646 561.019C150.581 550.103 162.269 537.805 179.14 533.174C193.632 529.197 207.673 532.795 221.116 538.537C232.511 543.405 243.494 549.295 255.413 552.846C273.559 558.253 290.135 556.211 307.833 550.273C336.922 540.516 365.783 536.419 395.646 544.636C405.578 547.369 415.326 550.741 425.486 552.584C439.953 555.204 454.553 554.51 468.922 551.596C484.102 548.518 497.177 541.829 511.596 536.571C523.104 532.372 534.963 529.083 547.096 527.3C571.842 523.663 596.412 527.262 620.801 531.668C658.897 538.55 696.654 544.244 735.422 545.677" stroke="url(#paint2_radial_339_1050)" stroke-width="0.3" stroke-miterlimit="10"></path><path d="M-95.8452 537.192C-44.8807 539.534 2.28778 565.377 54.0039 563.256C78.0871 562.268 101.033 554.449 119.615 538.871C132.488 528.079 144.877 516.364 161.633 512.062C175.528 508.495 188.938 511.708 201.854 517.16C213.921 522.255 225.426 528.634 238.004 532.46C254.101 537.356 270.447 537.148 286.641 532.694C318.168 524.022 347.809 521.074 379.847 528.309C406.359 534.297 430.509 538.855 457.579 532.413C472.975 528.748 486.523 521.305 501.29 515.897C514.326 511.125 527.903 507.64 541.779 506.582C566.349 504.71 589.69 511.604 613.107 518.028C651.24 528.489 688.969 532.934 728.565 530.61" stroke="url(#paint3_radial_339_1050)" stroke-width="0.3" stroke-miterlimit="10"></path><path d="M-92.1941 517.634C-47.3815 520.178 -6.25746 544.677 39.3194 541.7C61.5489 540.248 81.9719 531.529 99.0443 517.331C112.321 506.289 125.468 494.736 142.824 490.815C156.685 487.684 169.803 491.058 182.533 496.626C193.959 501.623 204.905 507.69 216.786 511.62C232.882 516.946 249.648 517.697 266.225 514.098C284.342 510.165 302.195 507.094 320.811 507.51C334.536 507.817 348.053 509.957 361.5 512.574C388.242 517.779 413.257 521.182 440.081 513.928C456.939 509.37 472.044 500.632 488.567 495.105C501.619 490.739 515.255 487.785 529.059 487.608C554.999 487.273 578.053 498.091 601.672 507.346C639.853 522.312 677.863 525.863 718.529 520.244" stroke="url(#paint4_radial_339_1050)" stroke-width="0.3" stroke-miterlimit="10"></path><path d="M-87.5818 498.103C-48.8895 500.928 -13.6299 524.366 25.8298 520.745C46.6287 518.836 65.2643 508.836 80.9818 495.48C93.8729 484.523 108.046 473.646 125.049 470.217C138.019 467.601 150.493 470.76 162.387 475.918C173.727 480.836 184.496 486.982 196.178 491.124C212.312 496.847 229.309 498.387 246.233 495.685C264.439 492.778 282.266 490.742 300.74 491.629C315.135 492.32 329.346 494.555 343.541 496.91C370.385 501.364 396.322 503.646 422.783 495.515C440.459 490.085 456.489 480.609 474.152 475.038C488.375 470.552 503.218 467.793 518.178 468.661C545.798 470.262 568.378 485.401 592.269 497.63C606.543 504.937 621.395 510.767 637.227 513.64C661.256 517.999 685.352 515.427 709.066 510.42" stroke="url(#paint5_radial_339_1050)" stroke-width="0.3" stroke-miterlimit="10"></path><path d="M-82.0378 478.752C-48.7679 482.004 -18.2707 505.126 15.7572 500.965C35.0813 498.604 52.1473 487.761 66.7628 475.498C79.4486 464.85 93.8966 454.547 110.489 451.214C123.033 448.692 135.077 451.567 146.611 456.545C157.664 461.318 168.136 467.319 179.461 471.479C195.551 477.389 212.509 479.361 229.56 477.562C263.515 473.976 295.749 476.612 329.449 481.038C357.353 484.706 384.856 485.877 411.836 476.401C430.234 469.936 446.966 459.806 465.696 454.03C480.855 449.355 496.765 446.634 512.64 448.37C541.565 451.533 563.213 470.267 586.924 485.154C600.608 493.746 615.15 500.552 631.117 503.57C655.671 508.21 680.219 503.8 703.913 496.979" stroke="url(#paint6_radial_339_1050)" stroke-width="0.3" stroke-miterlimit="10"></path><path d="M-75.5884 459.748C-58.2349 462.036 -42.7132 468.924 -26.7903 475.727C-14.5308 480.964 -1.91444 484.985 11.5609 482.93C29.6849 480.165 45.8383 468.924 59.8505 457.785C82.9485 439.422 107.938 426.61 136.844 438.501C147.925 443.059 158.35 449.003 169.643 453.094C186.605 459.24 203.81 460.802 221.722 459.685C255.696 457.57 289.096 461.677 322.852 464.767C353.03 467.532 383.269 467.573 411.906 456.336C431.76 448.545 449.704 437.112 470.222 430.701C485.744 425.849 502.264 423.052 518.502 425.347C547.724 429.479 567.904 450.499 590.585 467.179C603.151 476.418 616.926 483.89 632.388 486.86C657.778 491.737 683.191 484.707 706.826 475.755" stroke="url(#paint7_radial_339_1050)" stroke-width="0.3" stroke-miterlimit="10"></path><path d="M-68.2683 441.24C-50.7822 444.251 -35.6173 451.571 -19.9913 459.526C-9.5161 464.857 1.09177 468.977 13.0608 467.515C58.8018 461.928 88.1242 404.032 137.715 423.013C148.484 427.136 158.65 432.628 169.605 436.315C185.133 441.546 201.097 443.099 217.399 442.789C255.658 442.063 293.564 446.612 331.726 448.273C365.015 449.721 398.797 447.799 429.739 434.346C450.052 425.513 468.311 413.035 489.316 405.51C504.787 399.967 521.411 396.21 537.918 397.978C567.752 401.173 586.318 423.487 608.083 441.347C620.229 451.312 633.796 459.093 649.621 461.01C674.781 464.056 699.401 453.705 721.428 442.812" stroke="url(#paint8_radial_339_1050)" stroke-width="0.3" stroke-miterlimit="10"></path><path d="M-64.626 422.824C-46.8209 425.703 -30.4654 432.076 -13.6647 438.301C-1.6862 442.74 10.4565 445.735 23.3192 444.375C41.9706 442.399 59.6019 433.604 75.7364 424.576C88.2991 417.546 100.11 409.2 114.366 405.902C125.583 403.307 136.383 404.81 147.121 408.538C157.466 412.13 167.357 416.868 177.855 420.056C192.584 424.526 207.54 425.855 222.866 425.741C261.508 425.451 299.61 431.193 338.053 434.03C372.494 436.575 407.066 435.094 439.587 422.436C474.471 408.859 505.764 382.521 545.435 385.835C574.205 388.237 592.739 409.14 614.388 425.52C626.982 435.047 640.915 442.174 656.785 443.948C682.289 446.802 707.307 437.291 730.064 426.903" stroke="url(#paint9_radial_339_1050)" stroke-width="0.3" stroke-miterlimit="10"></path><path d="M-67.9294 404.134C-35.569 409.28 -4.04228 424.769 29.2119 422.439C49.1202 421.044 68.7632 414.649 87.0546 406.959C100.015 401.511 111.918 394.377 126.085 392.268C136.263 390.753 146.315 391.975 156.2 394.579C166.577 397.313 176.645 401.091 187.067 403.676C203.034 407.638 218.694 408.219 235.072 408.396C271.001 408.787 306.235 415.217 341.826 419.261C377.632 423.33 413.179 422.487 447.318 409.794C481.39 397.126 511.521 371.312 550.039 374.348C577.874 376.539 596.68 396.467 618.31 411.587C631.476 420.792 645.939 427.411 662.039 429.191C687.954 432.055 713.493 423.604 737.122 413.904" stroke="url(#paint10_radial_339_1050)" stroke-width="0.3" stroke-miterlimit="10"></path><path d="M-76.6516 385.231C-40.0278 391.212 -4.06086 402.983 33.4188 401.449C53.6713 400.622 73.6996 396.74 93.3016 391.758C106.474 388.412 118.648 382.5 132.25 380.609C143.843 378.996 155.417 379.893 166.89 381.903C177.779 383.81 188.523 386.446 199.437 388.21C215.385 390.789 231.033 390.644 247.123 391.054C281.05 391.919 313.976 399.259 347.36 404.486C381.602 409.846 415.352 409.638 448.423 398.201C482.909 386.275 513.441 359.668 552.108 363.317C579.22 365.874 598.285 385.092 620.079 399.132C633.936 408.059 648.987 414.357 665.469 416.251C691.823 419.278 717.95 412.046 742.513 403.207" stroke="url(#paint11_radial_339_1050)" stroke-width="0.3" stroke-miterlimit="10"></path><path d="M-89.2673 366.186C-49.0497 373.159 -9.10044 381.325 31.8878 381.458C54.392 381.531 76.8678 379.728 99.2077 377.137C112.538 375.593 125.322 371.148 138.756 369.772C151.116 368.506 163.534 368.876 175.898 369.886C187.522 370.833 199.106 372.253 210.737 373.14C226.572 374.346 242.207 373.664 258.035 373.904C290.743 374.4 322.143 383.535 353.939 390.012C385.914 396.528 417.248 396.322 448.405 385.776C481.962 374.419 511.474 349.39 548.884 352.278C576.748 354.428 597.083 374.062 619.947 387.755C659.817 411.632 703.085 407.437 746.161 394.223" stroke="url(#paint12_radial_339_1050)" stroke-width="0.3" stroke-miterlimit="10"></path><path d="M-104.252 347.059C-59.6478 355.386 -14.9141 360.496 30.4259 362.204C54.487 363.11 78.5703 363.448 102.647 363.735C116.195 363.896 129.737 360.929 143.288 359.963C156.694 359.006 170.131 358.804 183.566 358.82C197.369 358.839 211.173 359.06 224.977 358.943C241.2 358.804 257.814 356.617 273.968 357.507C303.502 359.136 330.85 368.397 359.219 375.724C388.605 383.312 417.258 382.823 446.147 373.038C478.688 362.015 507.24 338.716 543.415 341.232C571.013 343.151 591.938 361.737 614.781 375.118C656.729 399.689 701.857 398.01 747.958 386.33" stroke="url(#paint13_radial_339_1050)" stroke-width="0.3" stroke-miterlimit="10"></path><path d="M-120.084 327.917C-71.9425 337.716 -23.2013 339.992 25.6631 343.54C51.7264 345.43 77.7423 347.921 103.654 351.321C117.455 353.129 131.682 351.652 145.577 351.052C161.358 350.371 177.132 349.515 192.894 348.502C206.638 347.621 220.375 346.627 234.11 345.56C250.478 344.291 267.601 341.339 284.013 341.75C311.854 342.447 336.787 353.373 362.803 361.734C389.561 370.336 415.643 369.111 442.155 359.948C474.418 348.799 503.244 326.349 539.195 330.222C566.295 333.142 587.719 351.523 610.712 364.351C653.712 388.338 700.382 388.477 747.831 378.932" stroke="url(#paint14_radial_339_1050)" stroke-width="0.3" stroke-miterlimit="10"></path><path d="M-135.235 308.829C-84.3304 320.262 -32.2638 319.87 19.386 325.316C47.3031 328.258 74.9928 332.974 102.262 339.653C132.115 346.967 166.143 342.671 196.296 339.18C211.092 337.466 225.846 335.398 240.604 333.397C258.361 330.988 277.966 326.196 295.882 327.402C319.823 329.015 340.091 338.346 361.936 347.197C387.118 357.403 411.57 355.531 436.901 346.456C467.84 335.373 496.102 314.785 530.559 318.497C558.511 321.509 581.059 340.455 605.029 353.293C649.023 376.857 697.019 378.783 745.688 371.428" stroke="url(#paint15_radial_339_1050)" stroke-width="0.3" stroke-miterlimit="10"></path><path d="M-148.175 289.857C-95.4197 303.083 -40.7888 300.056 12.7716 307.484C42.394 311.59 71.4891 318.74 99.6178 328.901C130.472 340.047 166.467 335.562 198.127 330.618C213.945 328.147 229.669 325.107 245.418 322.241C263.378 318.97 283.529 313.301 301.837 314.359C324.65 315.678 342.332 325.448 362.563 334.656C418.956 360.332 466.718 298.531 523.278 306.382C550.817 310.205 573.567 328.863 597.571 341.354C642.57 364.767 691.593 368.387 741.455 363.198" stroke="url(#paint16_radial_339_1050)" stroke-width="0.3" stroke-miterlimit="10"></path><path d="M-157.387 271.073C-104.383 286.114 -48.6087 280.483 5.318 289.792C35.7457 295.044 65.2102 304.587 93.0421 317.945C124.9 333.239 161.628 329.357 195.309 323.141C212.062 320.048 228.655 316.162 245.294 312.526C263.589 308.529 283.895 302.428 302.733 303.043C313.407 303.39 323.983 305.256 333.918 309.255C342.543 312.728 350.261 317.879 358.586 321.945C381.362 333.063 405.698 325.815 427.971 316.68C455.914 305.218 482.729 288.453 514.239 293.264C541.405 297.408 564.234 315.742 588.112 327.968C634.011 351.466 684.047 356.728 735.025 353.656" stroke="url(#paint17_radial_339_1050)" stroke-width="0.3" stroke-miterlimit="10"></path><path d="M-161.343 252.54C-110.065 269.349 -54.9007 261.111 -2.48986 272.051C27.66 278.346 56.2687 290.06 82.5878 305.998C96.6758 314.527 110.735 320.18 127.252 321.765C147.246 323.684 167.46 320.821 187.04 316.885C204.57 313.359 221.864 308.776 239.217 304.492C257.941 299.871 277.932 293.958 297.341 293.763C307.879 293.655 318.437 294.953 328.359 298.624C336.002 301.452 342.864 305.78 350.175 309.296C372.749 320.149 397.141 311.86 418.944 302.832C446.375 291.471 473.058 274.289 504.054 278.892C530.667 282.841 553.417 300.815 576.825 312.724C623.459 336.453 674.414 343.224 726.32 342.185" stroke="url(#paint18_radial_339_1050)" stroke-width="0.3" stroke-miterlimit="10"></path><path d="M-158.457 234.136C-134.901 243.814 -109.302 244.941 -84.1857 245.847C-58.9972 246.756 -33.8181 247.927 -9.27068 254.152C19.9002 261.548 46.7404 275.576 70.5867 293.793C84.1158 304.128 96.8585 312.228 113.997 314.892C134.272 318.045 155.121 314.977 175.004 310.747C210.614 303.174 245.451 289.481 281.973 286.795C293.282 285.965 304.727 286.318 315.742 289.191C324.446 291.46 332.417 295.583 340.912 298.43C365.286 306.603 391.494 295.999 413.872 286.435C440.264 275.153 466.498 258.136 496.509 263.344C521.28 267.644 542.616 284.282 564.583 295.469C611.572 319.4 662.912 327.373 715.269 328.175" stroke="url(#paint19_radial_339_1050)" stroke-width="0.3" stroke-miterlimit="10"></path><path d="M-150.43 211.279C-130.515 223.581 -106.407 224.307 -83.7003 224.742C-60.4918 225.187 -37.1665 225.415 -14.5676 231.39C11.5621 238.297 34.6947 252.628 53.7946 271.612C65.2677 283.017 75.5661 291.811 92.0321 294.557C110.355 297.616 129.366 294.447 147.361 290.782C167.124 286.754 186.593 281.369 206.429 277.676C214.144 276.239 221.919 275.043 229.748 274.44C239.876 273.661 249.574 275.157 259.623 275.267C283.157 275.526 306.735 278.926 330.259 278.077C360.523 276.984 389.839 266.637 417.952 256.204C444.508 246.349 470.103 235.396 498.718 243.19C523.421 249.92 544.283 266.994 566.487 279.014C610.339 302.752 658.468 310.662 707.958 311.07" stroke="url(#paint20_radial_339_1050)" stroke-width="0.3" stroke-miterlimit="10"></path><path d="M-142.537 189.628C-125.367 204.461 -101.16 204.786 -79.6921 204.77C-56.9258 204.754 -33.8973 203.93 -11.6584 209.691C13.0848 216.102 34.01 230.815 49.696 250.86C58.9649 262.704 66.4652 271.975 82.1417 274.459C99.7668 277.252 118.213 273.007 135.339 269.096C154.808 264.651 174.135 259.193 193.974 256.583C201.56 255.585 209.231 254.998 216.886 255.327C227.096 255.762 236.049 259.941 245.921 261.012C274.583 264.124 303.198 264.004 331.551 258.467C366.381 251.668 400.248 240.074 434.279 230.2C461.353 222.346 486.557 216.216 513.868 226.267C537.364 234.913 557.092 251.539 578.851 263.531C618.725 285.507 662.58 292.158 707.718 291.423" stroke="url(#paint21_radial_339_1050)" stroke-width="0.3" stroke-miterlimit="10"></path><path d="M-134.303 169.769C-119.012 187.011 -93.5327 186.897 -72.3517 186.436C-49.1716 185.934 -25.5811 183.99 -2.78002 189.35C22.0864 195.196 41.9757 210.389 55.2395 232.144C58.6533 237.741 60.8829 244.143 65.9768 248.527C71.0613 252.899 77.6458 254.686 84.2114 255.181C101.628 256.501 119.484 250.73 136.063 246.232C153.631 241.466 171.304 236.305 189.463 234.351C198.397 233.388 207.527 233.199 216.398 234.84C225.123 236.456 231.793 241.475 240.02 244.108C272.055 254.364 309.879 247.709 341.358 239.152C381.096 228.347 419.696 214.372 460.205 206.38C486.751 201.143 511.134 200.054 536.178 211.522C557.861 221.453 576.269 237.195 597.118 248.628C632.646 268.108 671.838 272.76 711.869 270.428" stroke="url(#paint22_radial_339_1050)" stroke-width="0.3" stroke-miterlimit="10"></path><path d="M-125.236 152.287C-111.265 171.763 -83.9386 171.132 -62.5366 170.217C-37.9418 169.166 -12.8227 165.949 11.5385 171.06C36.2501 176.243 55.3784 191.391 66.3905 214.059C69.2232 219.889 70.3128 227.14 75.353 231.61C79.0384 234.88 83.8544 236.029 88.6389 236.38C106.753 237.705 126.093 229.154 142.979 223.766C160.434 218.197 178.236 212.55 196.597 211.073C205.524 210.356 214.676 210.669 223.32 213.197C232.289 215.82 238.093 222.282 246.257 226.023C261.633 233.065 281.387 233.958 297.979 232.813C318.974 231.361 339.394 225.571 359.299 219.037C422.112 198.421 497.119 162.833 560.873 197.982C580.52 208.813 597.63 223.649 617.45 234.214C648.695 250.865 682.992 253.321 717.724 249.237" stroke="url(#paint23_radial_339_1050)" stroke-width="0.3" stroke-miterlimit="10"></path><path d="M-114.861 137.765C-101.938 159.429 -72.2873 157.995 -50.4589 156.553C-24.1777 154.817 2.87096 150.123 29.0796 155.012C53.1628 159.507 71.5426 174.151 80.5114 197.093C82.6936 202.677 82.8547 210.484 87.1212 214.979C91.0024 219.067 96.8606 219.341 102.125 218.944C119.674 217.624 137.088 208.823 153.333 202.823C171.274 196.194 189.795 189.641 208.977 187.93C218.278 187.1 227.844 187.478 236.784 190.382C241.092 191.781 245.2 193.747 248.952 196.288C254.538 200.073 258.063 205.436 264.199 208.325C300.652 225.475 340.87 213.35 376.369 199.83C419.84 183.274 463.332 162.102 510.804 161.389C537.31 160.991 560.351 169.924 582.34 184.123C600.297 195.72 616.491 210.073 635.531 219.973C662.94 234.225 692.717 234.777 722.598 229.023" stroke="url(#paint24_radial_339_1050)" stroke-width="0.3" stroke-miterlimit="10"></path><path d="M-102.689 126.79C-90.9855 150.657 -58.5745 147.965 -36.5156 145.85C-9.47014 143.258 18.2575 137.387 45.4545 141.184C70.6304 144.701 88.8144 159.48 95.5568 184.206C97.0032 189.509 96.4064 197.404 100.951 201.283C104.349 204.184 109.297 203.906 113.428 203.401C133.684 200.933 153.636 189.004 172.307 181.469C191.546 173.704 211.729 166.276 232.613 164.979C242.674 164.354 252.979 165.301 262.361 169.196C272.726 173.499 278.136 181.583 286.527 188.319C319.724 214.97 367.91 192.599 400.434 177.23C439.452 158.792 481.356 133.624 526.112 136.377C552.266 137.987 575.099 153.274 595.554 168.527C612.591 181.232 628.536 195.961 647.482 205.863C671.824 218.591 697.745 218.168 723.805 210.968" stroke="url(#paint25_radial_339_1050)" stroke-width="0.3" stroke-miterlimit="10"></path><path d="M-88.2361 119.947C-78.4493 146.074 -43.1014 141.39 -21.3993 138.492C5.92093 134.846 34.0022 127.535 61.733 130.395C86.3594 132.936 103.233 147.387 107.278 172.189C108.166 177.621 107.041 185.57 112.277 189.118C116.2 191.776 122.115 190.639 126.397 189.664C147.594 184.84 167.518 173.066 187.341 164.496C210.881 154.319 236.01 144.341 261.947 143.255C271.525 142.854 281.248 143.798 290.318 147.037C304.274 152.021 311.439 161.724 321.463 171.744C349.541 199.819 392.301 171.497 418.538 155.064C436.656 143.716 454.394 131.604 473.418 121.781C490.936 112.734 511.378 104.312 531.526 107.73C545.371 110.079 556.661 119.025 567.658 127.182C577.334 134.357 586.641 142.008 595.802 149.824C613.01 164.502 629.723 180.841 649.631 191.899C671.605 204.105 695.176 204.857 718.666 196.242" stroke="url(#paint26_radial_339_1050)" stroke-width="0.3" stroke-miterlimit="10"></path><path d="M-75.0305 115.554C-65.3132 140.833 -31.1811 136.53 -9.89592 133.67C16.6222 130.11 43.5287 122.938 70.4636 124.611C94.6321 126.113 111.594 138.929 114.528 163.744C115.125 168.785 114.648 174.302 119.404 177.506C124.798 181.143 133.182 178.851 138.838 177.317C159.915 171.607 179.697 161.136 199.89 152.983C222.953 143.671 247.349 134.854 272.449 133.689C283.755 133.165 295.101 134.368 305.69 138.497C318.964 143.674 327.187 152.582 336.219 163.122C360.789 191.787 401.401 160.947 423.874 145.022C441.331 132.648 458.265 119.402 476.635 108.373C492.201 99.0296 511.771 88.8116 530.549 92.9247C542.768 95.6015 553.063 105.324 562.66 112.843C571.964 120.135 580.999 127.755 589.958 135.46C606.753 149.911 623.291 165.505 642.713 176.427C663.471 188.1 686.143 190.55 709.102 184.208" stroke="url(#paint27_radial_339_1050)" stroke-width="0.3" stroke-miterlimit="10"></path><path d="M-68.0786 108.645C-57.1328 132.424 -24.5071 129.311 -3.13981 126.827C23.6972 123.705 50.8722 116.555 78.0471 118.159C100.359 119.475 116.499 129.842 120.027 152.853C120.835 158.128 120.895 162.525 126.416 165.164C131.494 167.592 138.388 166.168 143.618 164.987C166.024 159.93 187.23 149.002 208.67 141.057C252.216 124.914 306.418 110.87 340.048 152.658C364.703 183.293 403.85 152.995 427.292 135.89C444.794 123.118 461.699 109.393 480.113 97.9186C493.964 89.2884 511.387 79.405 528.441 82.1197C540.062 83.9695 549.675 93.2026 558.714 100.106C568.393 107.499 577.842 115.182 587.259 122.903C603.548 136.256 619.793 150.303 638.41 160.369C658.694 171.339 680.889 175.07 703.725 171.799" stroke="url(#paint28_radial_339_1050)" stroke-width="0.3" stroke-miterlimit="10"></path><path d="M-66.4077 99.4436C-53.2671 122.679 -19.9813 120.006 2.54812 117.752C28.6904 115.135 54.9558 109.049 81.3444 110.015C101.316 110.747 120.116 117.926 124.145 139.53C125.251 145.445 126.046 149.432 132.426 151.411C138.278 153.226 145.329 151.512 151.049 150.107C172.659 144.807 193.145 135.057 214.121 127.765C256.808 112.925 309.661 101.303 342.063 141.708C367.103 172.93 406.897 142.172 430.854 124.775C447.011 113.042 462.653 100.548 479.406 89.6612C493.128 80.7437 510.355 69.9102 527.484 71.58C539.276 72.729 549.508 82.5304 558.679 89.2824C567.484 95.7629 576.172 102.401 584.872 109.024C601.445 121.641 618.117 134.548 636.724 144.081C657.122 154.533 679.282 159.35 702.177 159.082" stroke="url(#paint29_radial_339_1050)" stroke-width="0.3" stroke-miterlimit="10"></path><path d="M-69.1213 88.4186C-53.5048 110.815 -20.0264 109.155 3.9368 107.33C30.5022 105.31 57.1403 99.833 83.8668 100.714C101.969 101.31 121.868 106.096 127.249 125.765C128.648 130.878 129.131 133.988 134.642 135.907C140.933 138.098 148.613 136.125 154.803 134.619C175.889 129.489 195.987 120.272 216.552 113.463C238.27 106.273 261.245 99.9561 284.349 100.884C308.767 101.863 327.406 112.374 342.716 130.885C366.669 159.844 406.938 131.26 429.846 115.48C446.397 104.079 462.327 91.7647 479.203 80.8364C493.291 71.7138 511.62 59.7312 529.328 61.5873C540.624 62.7711 550.673 72.1652 559.743 78.4658C568.44 84.5044 577.093 90.6062 585.816 96.6132C602.626 108.192 619.72 119.578 638.242 128.274C658.946 137.993 681.078 143.644 703.765 146.251" stroke="url(#paint30_radial_339_1050)" stroke-width="0.3" stroke-miterlimit="10"></path><path d="M-75.3137 76.0339C-57.1518 97.3474 -23.964 97.0917 1.56566 95.9111C28.6301 94.658 55.6313 90.0587 82.7652 90.5322C101.284 90.8574 122.143 93.7741 129.83 112.96C131.813 117.916 133.092 119.583 138.77 120.564C144.751 121.597 151.427 119.933 157.213 118.462C177.355 113.333 196.591 104.822 216.347 98.4396C237.967 91.454 260.993 85.4438 283.923 86.9747C307.612 88.5562 324.798 99.1309 339.726 116.918C364.087 145.944 404.851 120.274 429.234 104.737C447.769 92.9281 465.501 79.8565 484.364 68.5621C497.997 60.3991 515.237 50.0359 531.918 51.8415C542.548 52.9905 551.659 61.3492 560.384 66.9744C568.99 72.5237 577.627 78.0257 586.366 83.3667C624.531 106.704 664.189 123.254 707.802 133.491" stroke="url(#paint31_radial_339_1050)" stroke-width="0.3" stroke-miterlimit="10"></path><path d="M-84.0737 62.7615C-62.4159 82.522 -31.0849 84.2013 -3.1805 83.7973C25.5514 83.3806 54.2042 79.3591 82.9519 79.9557C100.845 80.3281 121.641 82.0611 131.447 99.0564C136.885 108.482 150.506 104.167 159.367 101.708C179.417 96.1491 198.612 87.7778 218.495 81.6634C258.943 69.2295 303.516 64.2862 333.328 100.139C359.704 131.857 401.554 109.041 430.093 92.437C449.083 81.3856 467.308 69.0464 486.527 58.3896C500.524 50.6306 517.833 40.9272 534.533 42.5781C544.964 43.6103 553.974 51.4166 562.725 56.5966C571.952 62.0576 581.297 67.3292 590.793 72.3103C629.975 92.8663 671.898 106.553 713.581 121.011" stroke="url(#paint32_radial_339_1050)" stroke-width="0.3" stroke-miterlimit="10"></path><path d="M-94.4988 49.065C-69.4681 68.5761 -36.0497 71.1772 -5.41359 71.4171C23.5867 71.6412 52.5396 68.6803 81.5336 69.2958C98.4228 69.6557 120.706 70.1323 132.113 84.7033C138.934 93.4156 154.645 86.8972 163.425 84.0783C181.508 78.2733 199.054 70.9246 217.244 65.429C236.297 59.6713 256.562 55.1857 276.574 57.1649C297.323 59.2199 313.675 69.1948 326.98 84.858C354.698 117.488 399.081 96.6764 430.109 80.5334C448.798 70.8079 466.827 59.8701 485.551 50.2109C501.114 42.1836 520.672 31.6562 538.846 34.0458C548.826 35.359 557.744 42.616 566.479 47.2973C575.565 52.1648 584.831 56.7009 594.264 60.8645C635.495 79.053 679.256 90.4957 720.418 109.009" stroke="url(#paint33_radial_339_1050)" stroke-width="0.3" stroke-miterlimit="10"></path><path d="M-105.683 35.4088C-78.7008 53.6794 -45.3077 57.8461 -13.462 59.1656C17.0921 60.4314 47.6335 58.3733 78.1875 58.9194C88.9754 59.1119 99.918 59.5381 110.532 61.6151C119.34 63.3386 125.306 66.691 132.676 71.3912C141.443 76.9847 154.742 70.8514 163.909 67.6443C181.424 61.5173 198.544 54.3296 216.368 49.0991C233.206 44.159 250.91 40.4847 268.548 41.9241C290.029 43.6792 305.942 53.8403 319.74 69.6929C348.686 102.951 395.309 84.8984 428.907 69.5098C448.919 60.343 468.262 49.7936 488.253 40.5825C504.356 33.1645 523.932 23.783 542.199 26.0557C552.832 27.3784 562.442 34.8185 571.976 39.323C580.49 43.3446 589.197 46.9494 598.055 50.1408C616.52 56.7949 635.585 61.4667 654.372 67.0761C679.908 74.6993 704.25 84.8542 727.629 97.6669" stroke="url(#paint34_radial_339_1050)" stroke-width="0.3" stroke-miterlimit="10"></path><path d="M-116.725 22.2638C-60.2209 56.0333 12.1772 48.0881 75.2496 49.2466C94.7442 49.6064 113.923 50.2346 131.93 58.0883C134.374 59.1552 133.828 59.6129 136.749 59.8434C139.266 60.0422 142.437 58.9816 144.84 58.385C150.518 56.9772 156.048 54.9159 161.518 52.8578C178.338 46.5224 194.857 39.4042 212.097 34.2432C229.681 28.9779 248.484 25.2562 266.861 27.9488C274.184 29.0221 281.353 31.1623 287.963 34.5209C298.76 40.0071 305.6 48.388 313.77 56.9488C344.207 88.8527 392.904 72.9718 428.022 58.9185C448.606 50.6829 468.581 41.0299 489.067 32.5607C506.019 25.553 525.71 17.0301 544.557 18.741C555.348 19.7195 564.85 26.5568 574.666 30.7425C583.391 34.4641 592.363 37.5829 601.487 40.1839C620.293 45.5439 639.655 48.5174 658.587 53.3502C685.854 60.3106 710.891 71.968 734.526 87.1892" stroke="url(#paint35_radial_339_1050)" stroke-width="0.3" stroke-miterlimit="10"></path><path d="M-126.708 10.0947C-66.6173 42.2797 6.23874 39.3598 72.4313 40.6414C83.5318 40.856 94.6513 41.1022 105.723 41.9829C114.948 42.7184 123.301 44.9439 132.241 46.7368C141.823 48.6592 153.918 41.4116 162.641 37.7657C178.248 31.2409 193.811 24.5016 210.065 19.7161C226.25 14.9496 243.537 11.8151 260.395 14.454C279.286 17.4118 291.587 27.5824 304.149 41.2317C336.349 76.2228 388.059 62.8924 427.12 49.2968C448.248 41.9451 468.832 33.1539 489.808 25.3949C508.44 18.504 530.328 9.71593 550.619 12.7463C560.788 14.2646 569.984 20.5558 579.575 24.0944C588.098 27.2384 596.862 29.6658 605.752 31.5219C625.202 35.5845 645.12 36.8566 664.517 41.2159C692.516 47.507 717.43 60.7712 740.389 77.7759" stroke="url(#paint36_radial_339_1050)" stroke-width="0.3" stroke-miterlimit="10"></path><path d="M-134.741 -0.628174C-71.8741 29.9911 1.45564 32.0902 70.0925 33.4918C90.4556 33.9084 110.648 35.3542 130.932 36.2728C141.61 36.7557 153.91 28.498 163.59 24.085C178.079 17.4782 192.745 11.0734 208.077 6.65731C222.973 2.36746 238.861 -0.202031 254.307 2.4085C261.824 3.68062 269.097 6.21538 275.691 10.0507C285.07 15.5116 291.121 23.5137 298.732 30.9538C332.908 64.373 385.47 53.3091 426.345 40.9319C447.949 34.3914 469.064 26.3988 490.482 19.2933C509.91 12.8475 531.928 4.86751 552.755 7.28864C563.707 8.56391 573.582 15.0382 584.061 18.3274C592.332 20.9253 600.83 22.6867 609.413 23.8514C628.548 26.4493 647.983 26.1211 667 29.6817C696.525 35.209 721.805 50.4649 744.552 69.6099" stroke="url(#paint37_radial_339_1050)" stroke-width="0.3" stroke-miterlimit="10"></path><path d="M-139.905 -9.44385C-74.9286 19.7234 -1.22622 26.7311 69.2613 28.18C89.1569 28.5872 110.136 29.8498 129.99 27.858C141.037 26.75 152.479 18.1482 162.414 13.246C177.036 6.03308 192.055 -0.696842 207.849 -4.92356C221.649 -8.61681 236.356 -10.4319 250.476 -7.46149C257.443 -5.99681 264.131 -3.38313 270.201 0.344843C279.018 5.75845 284.886 13.5395 292.257 20.5599C327.437 54.0737 380.594 45.8697 423.316 34.7678C447.348 28.524 470.838 20.4399 494.64 13.4038C514.255 7.60508 536.364 0.426915 557.093 3.25209C567.578 4.68204 577.036 10.6575 587.268 13.388C595.249 15.5187 603.438 16.6993 611.671 17.2517C631.077 18.5586 650.612 16.5794 669.892 19.8212C699.897 24.8655 724.662 42.309 746.311 62.8902" stroke="url(#paint38_radial_339_1050)" stroke-width="0.3" stroke-miterlimit="10"></path><path d="M-141.307 -15.8838C-75.857 11.5441 -3.11461 23.4414 67.6129 25.0292C87.5749 25.4774 110.572 26.8063 130.088 21.4843C141.764 18.2992 152.991 9.11031 163.782 3.49783C177.642 -3.7119 192.106 -10.2051 207.331 -13.9362C220.314 -17.1181 234.042 -18.2797 247.141 -15.0505C264.634 -10.7385 274.433 0.707374 287.018 12.4721C323.212 46.308 377.284 40.121 421.658 30.0419C446.246 24.4547 470.33 16.9545 494.637 10.2972C514.896 4.74785 537.201 -2.0894 558.464 0.120242C568.996 1.21559 578.208 6.91961 588.459 9.33759C596.74 11.2915 605.238 11.9702 613.73 11.9102C632.558 11.7777 651.32 8.40007 670.107 11.2694C700.532 15.9128 724.625 35.9606 744.978 57.817" stroke="url(#paint39_radial_339_1050)" stroke-width="0.3" stroke-miterlimit="10"></path><path d="M-138.033 -19.4783C-73.0594 6.26397 -1.82661 22.8205 68.2409 24.484C88.0449 24.9543 110.502 25.1942 129.267 17.7825C141.267 13.0412 152.109 3.65028 163.497 -2.57142C176.827 -9.85691 190.893 -16.2775 205.739 -19.7656C218.093 -22.6697 231.082 -23.4651 243.471 -20.2896C259.476 -16.1859 269.932 -6.10053 281.33 5.1339C318.996 42.259 376.848 36.5928 424.241 26.6053C449.129 21.3621 473.557 14.2502 498.18 7.93067C518.372 2.75065 540.627 -3.79935 561.701 -1.41925C571.554 -0.304966 580.169 5.00763 589.892 6.87635C597.724 8.38206 605.721 8.46098 613.65 7.81703C631.594 6.36183 649.292 1.67424 667.385 4.23742C698.005 8.57462 721.125 31.7474 739.858 54.5824" stroke="url(#paint40_radial_339_1050)" stroke-width="0.3" stroke-miterlimit="10"></path><path d="M662.494 -0.920898C678.798 8.05023 670.749 30.2255 665.961 43.6475C658.025 65.9017 648.02 87.392 642.715 110.521C638.082 130.723 636.983 151.945 643.34 171.917C646.293 181.185 654.87 190.857 652.505 200.882C650.063 211.23 640.033 219.478 632.344 226.018C620.387 236.186 607.424 245.091 595.335 255.097C586.514 262.398 576.876 270.606 571.523 280.956C569.303 285.252 567.222 290.732 568.141 295.653C569.186 301.25 574.334 306.597 577.571 311.253C583.318 319.524 589.221 327.687 595.016 335.922C604.96 350.052 615.495 364.755 620.422 381.529C625.285 398.089 622.93 415.002 617.239 431.041C614.097 439.899 609.953 446.237 604.199 453.785C599.14 460.417 594.169 467.604 591.529 475.616C588.156 485.865 590.702 494.533 598.069 502.138C606.23 510.556 617.45 516.311 621.9 527.788C628.788 545.551 615.638 564.768 606.302 578.844" stroke="url(#paint41_radial_339_1050)" stroke-width="0.3" stroke-miterlimit="10"></path><path d="M651.153 -1.63892C665.977 7.00392 657.722 28.3932 653.345 40.6788C645.756 61.9955 636.468 82.6713 631.504 104.847C626.994 124.995 626.164 146.132 632.524 165.987C635.603 175.599 644.278 185.634 640.685 196.048C637.302 205.846 627.446 213.191 619.532 219.195C607.405 228.394 594.388 236.348 582.062 245.272C572.022 252.539 561.105 260.639 554.713 271.504C552.171 275.825 549.303 282.552 550.826 287.764C552.244 292.625 556.905 297.59 559.715 301.64C565.722 310.292 571.959 318.781 578.146 327.303C587.952 340.814 598.392 354.624 604.329 370.376C610.607 387.03 609.445 404.211 603.429 420.784C594.432 445.576 560.363 466.975 582.605 494.69C590.105 504.033 600.546 511.262 604.942 522.828C612.303 542.184 598.275 562.14 587.601 577.002" stroke="url(#paint42_radial_339_1050)" stroke-width="0.3" stroke-miterlimit="10"></path><path d="M640.233 -0.636475C653.872 7.38135 644.569 28.7138 640.542 39.5694C633.279 59.1531 624.91 78.3423 620.41 98.8256C616.064 118.589 615.369 139.35 621.695 158.782C624.641 167.826 632.701 177.564 629.925 187.366C626.934 197.915 615.805 205.643 607.38 211.583C594.738 220.494 581.181 228.017 568.318 236.6C557.947 243.522 546.234 251.388 539.58 262.272C536.655 267.055 534.113 273.22 535.509 278.895C536.677 283.655 540.991 288.409 543.802 292.507C549.673 301.064 555.837 309.41 562.021 317.741C572.259 331.538 583.353 345.456 590.02 361.438C596.69 377.423 596.222 394.052 589.985 410.122C583.451 426.953 567.503 437.604 561.834 455.076C558.023 466.825 560.877 477.646 567.715 487.529C575.139 498.255 585.45 507.4 589.448 520.181C595.938 540.93 581.907 560.671 569.992 576.227" stroke="url(#paint43_radial_339_1050)" stroke-width="0.3" stroke-miterlimit="10"></path><path d="M629.588 1.36768C641.554 8.25859 631.824 28.3663 628.297 37.4037C621.058 55.9457 613.078 74.2257 608.932 93.7873C605.06 112.055 604.668 131.058 610.207 149.031C613.024 158.176 620.907 167.756 619.002 177.63C616.77 189.199 604.573 197.463 595.529 203.575C582.48 212.388 568.487 219.705 555.198 228.14C544.35 235.024 532.526 242.774 525.543 253.86C522.543 258.626 519.771 265.328 521.091 271.155C522.265 276.341 527.044 281.67 529.917 285.944C535.264 293.902 540.917 301.648 546.636 309.344C566.285 335.793 590.605 364.449 576.325 399.131C569.131 416.599 552.216 427.316 546.522 445.887C542.641 458.545 545.897 470.496 552.627 481.497C560.07 493.668 570.444 504.486 574.244 518.581C580.165 540.544 566.266 560.239 553.192 576.429" stroke="url(#paint44_radial_339_1050)" stroke-width="0.3" stroke-miterlimit="10"></path><path d="M619.088 3.66748C629.307 9.21367 618.813 28.3933 615.879 35.3537C608.714 52.3458 601.229 69.2337 597.364 87.359C593.697 104.547 593.445 122.413 598.598 139.333C601.441 148.664 609.02 158.096 607.444 168.175C605.54 180.35 593.242 189.012 583.803 195.385C570.416 204.422 555.978 211.777 542.294 220.338C531.051 227.374 518.811 235.357 511.727 246.898C508.528 252.106 505.938 259.095 507.255 265.358C508.335 270.487 512.668 275.731 515.397 280.03C520.421 287.95 525.812 295.63 531.307 303.231C549.829 328.85 576.047 358.204 560.512 391.576C552.469 408.852 535.438 419.404 529.851 438.395C525.844 452.028 529.567 465.071 536.395 477.07C544.091 490.589 554.828 502.853 558.779 518.213C564.675 541.139 551.064 560.859 536.963 577.554" stroke="url(#paint45_radial_339_1050)" stroke-width="0.3" stroke-miterlimit="10"></path><path d="M608.587 5.54712C616.757 9.61601 605.457 27.9812 603.209 32.7698C596.005 48.1363 588.972 63.6385 585.321 80.296C581.8 96.36 581.617 113.068 586.332 128.914C589.203 138.564 596.447 147.892 595.203 158.302C593.649 171.298 581.418 180.664 571.473 187.605C557.796 197.151 542.909 204.809 528.859 213.771C517.184 221.214 504.577 229.724 497.452 241.947C494.092 247.711 491.622 255.23 493.002 262.017C494.048 267.156 497.702 272.276 500.257 276.73C504.82 284.684 509.813 292.38 514.951 299.975C532.162 325.427 559.103 355.932 541.778 388.007C532.715 404.784 515.86 415.119 510.656 434.438C506.759 448.904 511.319 462.772 518.485 475.376C526.752 489.915 538.156 503.233 542.615 519.651C548.972 543.054 535.923 562.619 521.059 579.51" stroke="url(#paint46_radial_339_1050)" stroke-width="0.3" stroke-miterlimit="10"></path><path d="M597.945 6.29468C603.364 9.48287 592.087 25.5911 590.363 28.8203C582.957 42.6874 576.193 57.0027 572.633 72.3912C569.134 87.5178 568.942 103.304 573.29 118.282C576.458 129.204 583.904 139.16 581.605 151.039C579.18 163.57 568.465 172.87 558.757 180.155C544.726 190.689 529.185 199.016 514.608 208.742C502.301 216.952 489.132 226.403 481.934 239.699C470.344 261.113 485.983 282.673 496.998 300.988C512.785 327.238 538.634 359.227 518.877 390.14C509.113 405.415 493.225 415.321 488.326 433.803C484.313 448.948 489.801 463.462 497.589 476.385C506.82 491.701 519.424 505.562 525.07 522.804C532.735 546.191 520.674 565.383 505.216 582.227" stroke="url(#paint47_radial_339_1050)" stroke-width="0.3" stroke-miterlimit="10"></path><path d="M587.036 5.19653C589.083 9.12969 578.345 21.4026 576.296 24.7487C568.884 36.8575 562.587 49.7712 559.125 63.5941C555.614 77.6253 555.238 92.3509 558.889 106.395C561.769 117.465 568.543 127.513 567.459 139.359C566.171 153.47 555.645 164.565 545.303 173.211C530.833 185.307 514.348 194.746 499.015 205.664C485.774 215.093 471.828 225.914 464.45 240.791C453.508 262.853 465.872 285.83 475.797 305.884C489.683 333.943 513.438 368.032 491.48 398.234C481.093 412.521 465.268 421.868 461.27 440.287C457.623 457.093 466.383 472.345 475.955 485.483C486.541 500.013 500.007 513.533 506.49 530.598C514.821 552.527 504.295 569.958 489.209 585.633" stroke="url(#paint48_radial_339_1050)" stroke-width="0.3" stroke-miterlimit="10"></path><path d="M575.711 1.53687C561.816 16.7834 550.078 33.8102 544.545 53.9558C540.828 67.485 540.25 81.7972 543.471 95.4906C546.417 108.022 553.008 119.108 551.189 132.48C549.013 148.465 537.414 161.152 525.758 171.36C499.473 194.381 461.978 210.998 445.417 243.303C433.467 266.617 442.515 293.212 450.915 316.195C462.613 348.191 483.032 385.329 457.023 415.878C446.617 428.101 430.95 436.864 428.493 454.159C426.235 470.065 437.266 484.153 447.176 495.286C460.332 510.063 477.162 523.273 486.134 541.263C495.687 560.42 486.847 575.929 472.763 589.65" stroke="url(#paint49_radial_339_1050)" stroke-width="0.3" stroke-miterlimit="10"></path><path d="M552.905 -1.85187C547.654 -2.10756 541.963 9.71084 539.777 13.4357C532.915 25.1278 527.682 37.8995 524.243 51.0058C521.034 63.2314 519.411 75.9936 520.4 88.6296C521.366 101.016 523.46 112.077 519.913 124.495C514.668 142.854 501.916 157.842 488.62 171.043C461.063 198.401 421.142 221.811 407.143 259.845C401.42 275.391 402.646 289.277 408.87 304.126C412.322 312.362 416.004 320.499 419.633 328.662C433.459 359.777 449.584 396.328 428.554 428.134C420.126 440.88 405.163 448.974 403.034 465.313C401.016 480.809 411.839 494.218 421.439 505.096C433.55 518.818 448.677 531.176 457.185 547.663C466.549 565.81 459.033 580.826 445.481 594.236" stroke="url(#paint50_radial_339_1050)" stroke-width="0.3" stroke-miterlimit="10"></path><path d="M520.671 3.01567C511.901 0.0547589 500.744 52.742 499.525 58.4555C496.841 71.0346 494.75 83.7905 493.796 96.6254C492.896 108.737 491.431 119.846 486.315 131.2C478.29 149 465.213 164.086 451.731 177.965C426.009 204.446 389.521 230.173 378.398 267.105C375.613 276.351 374.527 287.128 376.715 296.642C377.966 302.081 381.313 306.481 384.064 311.247C388.539 319.003 392.758 326.911 396.513 335.042C411.242 366.921 418.082 403.039 400.527 435.306C393.87 447.538 380.325 455.786 379.115 470.543C377.931 484.988 388.457 497.491 397.593 507.438C409.553 520.462 423.963 532.006 433.257 547.237C443.625 564.229 439.112 578.841 426.091 592.724" stroke="url(#paint51_radial_339_1050)" stroke-width="0.3" stroke-miterlimit="10"></path><path d="M481.857 12.5968C477.048 11.2269 471.865 69.9401 471.199 75.3726C469.617 88.2674 467.861 101.188 465.085 113.89C458.415 144.386 436.505 168.452 415.317 190.195C392.744 213.361 359.891 239.385 354.933 273.511C353.672 282.179 354.127 293.66 358.422 301.545C360.611 305.56 364.107 309.039 366.715 312.808C371.569 319.822 375.716 327.334 378.984 335.213C392.917 368.79 388.108 405.947 372.709 438.129C367.252 449.53 355.128 458.587 355.533 472.097C355.946 485.952 367.397 497.634 376.6 506.744C389.728 519.743 405.486 531.252 415.636 546.925C425.044 561.449 422.922 574.35 412.352 587.383" stroke="url(#paint52_radial_339_1050)" stroke-width="0.3" stroke-miterlimit="10"></path><path d="M439.002 23.1697C435.639 24.1419 438.952 43.4636 439.207 46.5792C440.543 62.9274 441.667 79.326 441.292 95.7373C440.995 108.664 440.013 122.032 435.882 134.371C432.032 145.877 424.216 155.833 416.589 165.082C405.344 178.722 392.794 191.162 380.373 203.716C361.785 222.504 333.296 247.438 335.772 276.833C336.912 290.368 344.845 298.784 352.835 308.778C358.219 315.514 362.372 323.172 364.978 331.395C376.255 366.97 358.92 405.98 344.504 437.978C339.644 448.765 329.772 458.414 331.973 470.978C334.326 484.415 346.598 495.186 356.261 503.772C369.699 515.71 384.794 526.263 396.422 540.083C407.349 553.069 410.501 566.005 401.232 580.629" stroke="url(#paint53_radial_339_1050)" stroke-width="0.3" stroke-miterlimit="10"></path><path d="M394.647 31.0264C393.87 32.9993 395.569 37.1502 396.188 39.464C397.919 45.9509 399.735 52.4125 401.399 58.9151C405.975 76.8006 409.932 95.0111 411.369 113.449C412.427 126.997 412.629 142.007 407.052 154.706C402.305 165.508 391.836 173.478 383.458 181.367C371.751 192.39 359.669 203.028 348.195 214.3C332.576 229.647 308.309 253.442 318.731 277.758C323.781 289.538 334.846 295.264 342.631 304.734C347.378 310.514 350.64 317.345 352.118 324.678C355.633 342.127 349.677 360.414 343.212 376.443C335.071 396.623 324.504 415.712 315.718 435.601C310.874 446.571 302.96 457.603 307.886 469.835C313.091 482.752 325.837 492.648 336.309 501.114C351.354 513.273 368.053 524.192 380.982 538.731C390.719 549.679 395.588 560.941 389.705 574.947" stroke="url(#paint54_radial_339_1050)" stroke-width="0.3" stroke-miterlimit="10"></path><path d="M351.324 32.4485C352.041 35.7945 353.992 39.191 355.382 42.3761C358.894 50.4381 362.317 58.538 365.516 66.7263C372.906 85.6502 379.538 105.168 382.945 125.244C385.342 139.357 387.07 156.441 379.727 169.474C373.929 179.765 360.994 185.715 351.826 192.436C339.181 201.707 326.596 211.303 315.445 222.36C301.105 236.581 284.471 258.283 301.398 277.077C309.537 286.115 321.736 289.439 329.934 298.236C334.975 303.647 337.861 310.241 338.436 317.615C339.863 335.952 329.401 354.345 320.748 369.746C308.816 390.981 294.89 411.272 285.248 433.719C280.435 444.925 275.723 455.177 281.888 466.847C288.915 480.146 302.153 490.058 313.787 499.095C329.148 511.027 345.475 522.038 359.339 535.763C369.798 546.123 377.728 557.635 374.712 572.743" stroke="url(#paint55_radial_339_1050)" stroke-width="0.3" stroke-miterlimit="10"></path><path d="M311.584 23.7141C328.619 57.5437 348.704 89.454 357.821 126.756C361.26 140.828 364.488 159.2 355.914 172.167C348.979 182.653 334.294 186.687 323.92 192.919C310.217 201.148 296.663 210.353 285.329 221.707C269.425 237.642 259.824 259.833 281.21 275.758C296.063 286.819 323.212 288.804 321.722 312.782C320.538 331.829 305.913 350.018 295.428 364.942C280.591 386.06 263.851 406.859 253.912 430.89C249.081 442.57 246.425 452.93 252.993 464.578C260.538 477.955 273.476 488.246 285.142 497.848C301.463 511.283 319.167 523.436 333.981 538.601C344.526 549.393 353.476 560.852 353.245 576.493" stroke="url(#paint56_radial_339_1050)" stroke-width="0.3" stroke-miterlimit="10"></path><path d="M277.952 1.11157C301.619 35.3609 325.317 72.4134 337.523 112.499C341.694 126.199 346.349 145.508 336.859 158.166C334.387 161.462 331.216 163.485 327.625 165.348C317.207 170.755 306.469 175.162 296.237 180.989C280.583 189.906 265.131 200.386 253.238 214.089C245.207 223.344 237.959 235.27 238.796 248.007C239.541 259.339 246.877 268.263 255.732 274.671C263.286 280.135 271.838 283.664 280.567 286.792C285.077 288.409 289.694 290.012 293.436 293.121C298.202 297.086 300.39 302.563 299.797 308.718C298.881 318.15 292.985 327.109 287.79 334.704C281.142 344.42 273.642 353.53 266.198 362.643C249.445 383.148 230.708 404.134 220.858 429.068C215.521 442.581 215.085 454.456 222.582 467.342C230.279 480.565 241.786 491.446 252.818 501.859C268.699 516.857 285.664 530.774 300.362 546.983C311.308 559.057 320.643 572.079 322.25 588.629" stroke="url(#paint57_radial_339_1050)" stroke-width="0.3" stroke-miterlimit="10"></path><path d="M258.884 -14.9053C268.225 -3.09003 275.293 11.4273 282.278 24.6788C293.341 45.6609 303.68 67.7257 309.194 90.8984C312.469 104.661 315.318 122.979 305.84 135.097C303.109 138.589 299.676 140.584 295.902 142.749C287.009 147.85 278.328 153.28 269.965 159.214C254.323 170.319 239.414 183.148 228.149 198.795C211.279 222.233 206.589 251.116 227.834 273.446C234.323 280.267 242.266 285.971 250.597 290.34C254.848 292.569 259.569 294.103 263.346 297.168C268.525 301.373 270.928 307.086 270.192 313.74C268.165 332.023 250.941 349.3 239.863 362.684C222.819 383.278 204.123 403.707 192.356 427.95C185.889 441.277 185.109 452.13 192.359 465.473C200.179 479.861 212.318 491.938 223.861 503.356C239.585 518.908 256.149 533.65 270.865 550.19C282.597 563.376 292.962 577.94 295.157 595.813" stroke="url(#paint58_radial_339_1050)" stroke-width="0.3" stroke-miterlimit="10"></path><path d="M239.151 -22.9678C239.366 -19.0315 242.265 -14.5112 243.844 -10.9C247.933 -1.55323 251.966 7.81879 255.709 17.3108C264.178 38.7947 271.837 61.131 274.938 84.1018C277.047 99.7239 277.613 118.623 267.368 131.754C264.902 134.914 262.012 137.114 258.769 139.406C250.498 145.249 242.262 151.022 234.531 157.585C220.585 169.422 207.46 182.623 197.579 198.11C181.476 223.34 177.351 253.606 197.357 278.007C204.182 286.331 213.384 294.563 222.966 299.573C226.168 301.249 229.431 302.259 232.427 304.406C237.43 307.985 240.585 312.859 240.604 319.112C240.651 335.543 224.864 351.806 215.229 363.558C199.982 382.153 183.642 400.193 171.43 421.027C167.789 427.236 163.541 433.846 163.75 441.29C163.904 446.855 165.846 452.114 168.202 457.079C175.589 472.66 188.613 485.659 200.541 497.809C216.198 513.756 232.784 528.892 247.349 545.878C258.999 559.464 269.421 574.105 271.751 592.205" stroke="url(#paint59_radial_339_1050)" stroke-width="0.3" stroke-miterlimit="10"></path><path d="M218.518 -24.4854C216.588 -20.7511 219.336 -13.8759 220.239 -10.1448C222.541 -0.624427 225.131 8.8265 227.458 18.3437C233.117 41.4628 237.997 65.0902 238.571 88.9637C238.998 106.758 237.125 126.629 226.129 141.376C218.856 151.13 207.427 157.879 198.581 166.074C186.119 177.614 174.482 190.427 165.605 204.97C149.969 230.586 146.287 260.602 165.785 285.299C172.167 293.384 180.126 300.211 188.64 305.947C192.65 308.649 197.229 309.896 201.366 312.409C205.924 315.177 209.975 319.022 211.216 324.388C214.359 337.961 201.344 352.895 193.8 362.612C180.391 379.885 165.677 396.147 153.724 414.516C150.367 419.674 145.889 425.435 145.337 431.745C144.812 437.749 146.802 443.907 149.35 449.251C156.813 464.892 169.821 478.024 181.73 490.325C196.538 505.619 211.981 520.329 225.841 536.51C237.523 550.147 248.115 565.071 250.36 583.25" stroke="url(#paint60_radial_339_1050)" stroke-width="0.3" stroke-miterlimit="10"></path><path d="M197.221 -20.4255C194.135 -16.2493 195.872 -8.23781 196.289 -3.54391C197.151 6.1122 198.477 15.7273 199.599 25.355C202.494 50.2323 204.79 75.4285 202.956 100.479C201.541 119.785 197.71 140.228 186.483 156.44C179.839 166.036 170.134 173.104 161.974 181.321C151.239 192.129 141.127 203.846 133.359 216.997C118.958 241.375 116.422 268.917 134.653 292.023C141.02 300.092 149.278 307.838 158.08 313.201C162.043 315.616 166.676 316.752 170.778 318.921C175.512 321.424 180.224 324.808 182.558 329.789C187.522 340.383 179.659 352.583 173.927 361.135C162.902 377.571 149.635 392.414 138.213 408.576C130.096 420.059 125.697 428.273 131.966 442.067C138.592 456.645 150.314 468.902 161.14 480.442C175.79 496.065 191.242 510.942 205.125 527.274C216.772 540.977 227.62 556.018 229.663 574.273" stroke="url(#paint61_radial_339_1050)" stroke-width="0.3" stroke-miterlimit="10"></path><path d="M175.458 -11.7651C172.259 -7.42794 173.01 0.00275657 172.966 5.05967C172.871 15.6123 173.396 26.1743 173.677 36.7206C174.353 61.961 174.466 87.3907 170.98 112.451C168.197 132.442 163.293 153.011 152.281 170.208C146.407 179.378 138.338 186.61 130.898 194.46C122.137 203.703 113.677 213.356 106.758 224.076C92.2371 246.576 87.9138 272.533 105.277 294.91C114.779 307.161 126.549 314.39 139.965 321.224C145.292 323.939 150.721 327.272 154.346 332.136C161.225 341.366 158.003 352.329 153.162 361.72C144.534 378.457 131.861 393.186 120.786 408.306C113.112 418.779 108.182 426.573 113.649 439.493C119.861 454.175 131.861 466.672 142.482 478.222C157.11 494.125 172.568 509.321 186.173 526.136C196.822 539.302 206.571 553.39 208.286 570.588" stroke="url(#paint62_radial_339_1050)" stroke-width="0.3" stroke-miterlimit="10"></path><path d="M153.451 0.530273C150.953 4.82012 151.534 11.4396 151.405 16.1871C151.127 26.3515 151.231 36.5253 151.105 46.6896C150.808 70.6862 149.788 94.7839 145.938 118.506C142.809 137.799 137.917 157.484 128.206 174.612C117.69 193.154 100.207 206.506 87.3725 223.344C72.0212 243.486 63.8293 268.073 79.4174 290.703C87.9914 303.153 99.8436 310.523 112.176 318.503C117.86 322.181 123.403 326.401 127.59 331.78C147.331 357.144 117.052 391.753 102.509 411.592C94.9076 421.962 86.8893 429.834 91.6074 443.389C96.7676 458.219 108.699 470.997 118.88 482.537C133.432 499.027 148.923 514.722 162.578 531.986C173.262 545.493 183.238 559.985 184.886 577.511" stroke="url(#paint63_radial_339_1050)" stroke-width="0.3" stroke-miterlimit="10"></path><path d="M131.996 15.0613C135.151 47.625 135.482 80.9937 131.102 113.447C128.721 131.096 124.9 149.107 116.882 165.14C107.875 183.151 91.1846 194.945 77.7755 209.475C60.9905 227.663 46.5488 251.448 58.6188 276.152C68.4403 296.256 90.035 307.141 101.647 326.197C122.411 360.273 97.4849 397.767 77.6555 425.855C69.6373 437.212 60.381 445.514 65.3581 460.212C70.5152 475.436 82.3736 488.763 92.5646 500.834C107.092 518.044 122.563 534.477 136.209 552.417C146.94 566.52 156.938 581.565 158.817 599.539" stroke="url(#paint64_radial_339_1050)" stroke-width="0.3" stroke-miterlimit="10"></path><path d="M121.469 20.5287C120.282 20.0078 121.516 25.4498 121.693 26.7851C122.53 33.1583 123.402 39.5252 124.093 45.9174C126.124 64.6551 127.163 83.6706 125.483 102.478C124.119 117.737 121.084 133.798 112.772 146.942C108.35 153.934 102.088 159.335 95.9141 164.742C86.1305 173.309 76.1606 181.681 67.0717 191.002C49.6109 208.913 32.7722 232.941 40.8663 259.109C45.1865 273.084 55.8165 283.141 64.1758 294.71C69.3202 301.831 74.0541 309.278 77.9291 317.172C97.5721 357.217 83.2409 398.108 61.7094 434.274C53.849 447.475 44.7444 456.433 50.6499 472.273C56.1828 487.116 67.0875 500.004 77.048 512.062C90.9244 528.862 105.691 544.913 119.078 562.117C130.504 576.802 141.32 592.575 144.463 611.209" stroke="url(#paint65_radial_339_1050)" stroke-width="0.3" stroke-miterlimit="10"></path><path d="M108.329 24.2728C107.916 23.651 107.666 23.108 107.019 22.9028C106.674 26.252 107.957 29.98 108.626 33.2502C109.959 39.734 111.282 46.2208 112.384 52.7487C115.201 69.4441 117.102 86.7171 115.189 103.624C113.742 116.389 109.88 129.862 100.065 138.776C82.3323 154.884 62.2787 167.779 46.1948 185.826C28.9835 205.135 15.9187 230.265 26.0118 256.162C30.6699 268.113 39.165 278.785 45.3485 290.048C49.8581 298.261 54.0299 306.671 57.5417 315.361C75.4572 359.705 67.3442 403.936 45.0895 445.262C41.4672 451.989 35.868 458.722 34.9774 466.469C34.3111 472.245 36.0859 478.019 38.2744 483.293C44.2905 497.792 54.4563 510.554 64.1388 522.748C77.0584 539.02 90.7358 554.687 103.153 571.357C113.906 585.795 123.842 601.13 127.413 618.981" stroke="url(#paint66_radial_339_1050)" stroke-width="0.3" stroke-miterlimit="10"></path><path d="M92.8614 26.3869C90.7108 22.1602 90.2718 25.1369 90.5276 27.5959C91.0614 32.7349 93.3099 38.0917 94.6426 43.0633C98.8017 58.5624 102.449 74.4844 102.696 90.6021C102.885 103.02 101.019 116.862 92.2235 126.348C86.1885 132.857 77.3302 137.301 70.2341 142.563C60.3052 149.925 50.6258 157.646 41.6317 166.131C22.3992 184.278 2.90776 208.726 5.47209 236.845C6.78584 251.233 14.7536 263.74 20.8707 276.505C25.4657 286.098 29.9974 295.732 34.0934 305.552C42.298 325.215 48.7152 345.784 50.2626 367.135C52.2806 394.97 45.5855 422.37 33.8818 447.522C30.5185 454.75 24.9856 461.988 23.4761 469.874C22.4181 475.395 23.4982 480.884 25.1499 486.174C29.4574 499.978 38.2778 512.466 46.6056 524.104C68.5066 554.708 100.349 585.34 108.156 623.371" stroke="url(#paint67_radial_339_1050)" stroke-width="0.3" stroke-miterlimit="10"></path><path d="M75.341 26.9807C72.5998 23.8652 71.3998 23.7136 71.3176 27.3343C71.2197 31.8356 74.4283 37.7701 75.8147 41.9652C80.8518 57.2244 85.7625 72.897 86.7857 89.0305C87.5594 101.202 85.8794 114.956 76.1873 123.479C69.8997 129.006 61.4014 132.541 54.4979 137.327C43.9816 144.619 33.8727 152.529 24.5628 161.317C5.57354 179.244 -12.7305 203.07 -11.9947 230.529C-11.6157 244.658 -5.15433 257.626 0.170131 270.451C4.39559 280.628 8.8421 290.714 13.1023 300.875C22.068 322.254 30.2852 344.177 33.6927 367.221C37.8329 395.195 33.9327 423.206 23.2491 449.337C17.7004 462.911 10.2474 473.046 13.7971 488.182C17.1572 502.507 25.3555 515.696 33.1717 527.956C52.5873 558.405 80.2707 588.459 87.171 624.889" stroke="url(#paint68_radial_339_1050)" stroke-width="0.3" stroke-miterlimit="10"></path><path d="M56.0404 26.1507C44.8515 17.2111 54.0003 38.5973 55.3614 42.2463C61.0491 57.4707 66.983 73.0171 68.7041 89.2958C69.9768 101.326 68.6473 114.906 58.57 123.012C52.1655 128.163 43.6956 130.989 36.7574 135.484C26.5727 142.084 16.8902 149.531 8.00975 157.81C-11.1153 175.639 -28.7151 199.374 -29.2457 226.574C-29.5141 240.318 -24.4391 253.469 -19.7842 266.196C-15.9377 276.711 -11.548 287.017 -7.12673 297.302C2.64425 320.023 12.7594 342.826 18.1944 367.06C24.3558 394.532 23.3105 422.743 13.8016 449.35C8.67611 463.697 1.03996 474.587 3.83167 490.288C6.30441 504.193 13.0311 517.277 19.7103 529.566C36.1258 559.784 59.4827 589.318 64.9398 624.06" stroke="url(#paint69_radial_339_1050)" stroke-width="0.3" stroke-miterlimit="10"></path><path d="M35.24 23.9898C21.6636 15.6973 31.1029 36.7236 33.1051 41.6732C39.4402 57.3553 46.4415 73.1795 49.0248 90.02C50.9007 102.252 50.1302 116.094 39.7812 124.453C33.0609 129.882 23.8142 132.297 16.4244 136.849C6.0123 143.263 -3.70814 150.867 -12.4401 159.428C-30.5515 177.181 -45.7638 200.6 -46.288 226.708C-46.7712 250.639 -35.2633 275.601 -25.6407 296.984C-3.83131 345.429 22.0551 395.297 4.57539 449.538C0.327823 462.716 -6.78723 473.569 -5.96298 487.843C-5.14189 502.083 0.312032 515.893 5.9365 528.841C19.0203 558.956 38.1517 588.17 41.9319 621.381" stroke="url(#paint70_radial_339_1050)" stroke-width="0.3" stroke-miterlimit="10"></path><path d="M13.2121 20.6128C-3.06446 13.4157 7.5276 35.5247 10.2814 41.9264C17.3396 58.344 25.4116 74.7868 28.6738 92.4955C30.9792 105.008 30.4108 119.368 19.4271 127.717C12.4573 133.017 3.14741 134.974 -4.42557 139.438C-13.6755 144.889 -22.2054 151.6 -29.8447 159.132C-47.2107 176.253 -60.8408 198.751 -62.7988 223.48C-64.6936 247.438 -55.3711 271.94 -45.4201 293.282C-23.1085 341.136 11.273 390.522 -3.41501 445.927C-7.08149 459.762 -14.8345 471.622 -15.2356 486.224C-15.6145 500.013 -11.9701 513.738 -7.82994 526.771C1.66945 556.671 16.5722 585.655 18.6281 617.392" stroke="url(#paint71_radial_339_1050)" stroke-width="0.3" stroke-miterlimit="10"></path><path d="M-9.7649 16.1085C-28.0847 10.1204 -17.0884 32.6776 -13.583 40.3987C-5.73209 57.6907 3.56204 74.7996 7.83802 93.4458C10.775 106.246 11.214 121.379 -0.000236782 130.404C-6.80266 135.877 -15.9483 137.32 -23.5371 141.433C-32.8439 146.477 -41.2158 153.188 -48.5614 160.783C-65.3559 178.151 -77.2049 200.976 -79.1313 225.263C-81.0293 249.228 -73.4594 272.606 -62.9463 293.806C-39.9368 340.199 1.00086 388.72 -12.0103 444.033C-15.0546 456.978 -22.4192 468.219 -24.3014 481.471C-26.1804 494.697 -24.5193 508.214 -22.0844 521.25C-16.3873 551.734 -4.9931 581.296 -4.50361 612.584" stroke="url(#paint72_radial_339_1050)" stroke-width="0.3" stroke-miterlimit="10"></path></g></g><defs><radialGradient id="paint0_radial_339_1050" cx="0" cy="0" r="1" gradientUnits="userSpaceOnUse" gradientTransform="translate(293.336 300.132) rotate(90) scale(324.767 454.737)"><stop stop-color="white"></stop><stop offset="0.592173" stop-color="white" stop-opacity="0.134615"></stop></radialGradient><radialGradient id="paint1_radial_339_1050" cx="0" cy="0" r="1" gradientUnits="userSpaceOnUse" gradientTransform="translate(317.609 576.793) rotate(90) scale(28.7156 417.766)"><stop stop-color="white"></stop><stop offset="0.592173" stop-color="white" stop-opacity="0.134615"></stop></radialGradient><radialGradient id="paint2_radial_339_1050" cx="0" cy="0" r="1" gradientUnits="userSpaceOnUse" gradientTransform="translate(318.455 555.287) rotate(90) scale(29.4823 416.967)"><stop stop-color="white"></stop><stop offset="0.592173" stop-color="white" stop-opacity="0.134615"></stop></radialGradient><radialGradient id="paint3_radial_339_1050" cx="0" cy="0" r="1" gradientUnits="userSpaceOnUse" gradientTransform="translate(316.36 534.825) rotate(90) scale(28.5549 412.205)"><stop stop-color="white"></stop><stop offset="0.592173" stop-color="white" stop-opacity="0.134615"></stop></radialGradient><radialGradient id="paint4_radial_339_1050" cx="0" cy="0" r="1" gradientUnits="userSpaceOnUse" gradientTransform="translate(313.167 514.775) rotate(90) scale(27.1749 405.362)"><stop stop-color="white"></stop><stop offset="0.592173" stop-color="white" stop-opacity="0.134615"></stop></radialGradient><radialGradient id="paint5_radial_339_1050" cx="0" cy="0" r="1" gradientUnits="userSpaceOnUse" gradientTransform="translate(310.742 494.813) rotate(90) scale(26.3113 398.324)"><stop stop-color="white"></stop><stop offset="0.592173" stop-color="white" stop-opacity="0.134615"></stop></radialGradient><radialGradient id="paint6_radial_339_1050" cx="0" cy="0" r="1" gradientUnits="userSpaceOnUse" gradientTransform="translate(310.938 476.664) rotate(90) scale(28.8216 392.976)"><stop stop-color="white"></stop><stop offset="0.592173" stop-color="white" stop-opacity="0.134615"></stop></radialGradient><radialGradient id="paint7_radial_339_1050" cx="0" cy="0" r="1" gradientUnits="userSpaceOnUse" gradientTransform="translate(315.619 456.495) rotate(90) scale(31.9625 391.207)"><stop stop-color="white"></stop><stop offset="0.592173" stop-color="white" stop-opacity="0.134615"></stop></radialGradient><radialGradient id="paint8_radial_339_1050" cx="0" cy="0" r="1" gradientUnits="userSpaceOnUse" gradientTransform="translate(326.58 432.675) rotate(90) scale(35.138 394.848)"><stop stop-color="white"></stop><stop offset="0.592173" stop-color="white" stop-opacity="0.134615"></stop></radialGradient><radialGradient id="paint9_radial_339_1050" cx="0" cy="0" r="1" gradientUnits="userSpaceOnUse" gradientTransform="translate(332.719 415.127) rotate(90) scale(29.5781 397.345)"><stop stop-color="white"></stop><stop offset="0.592173" stop-color="white" stop-opacity="0.134615"></stop></radialGradient><radialGradient id="paint10_radial_339_1050" cx="0" cy="0" r="1" gradientUnits="userSpaceOnUse" gradientTransform="translate(334.596 401.93) rotate(90) scale(27.8276 402.526)"><stop stop-color="white"></stop><stop offset="0.592173" stop-color="white" stop-opacity="0.134615"></stop></radialGradient><radialGradient id="paint11_radial_339_1050" cx="0" cy="0" r="1" gradientUnits="userSpaceOnUse" gradientTransform="translate(332.931 389.964) rotate(90) scale(26.9874 409.582)"><stop stop-color="white"></stop><stop offset="0.592173" stop-color="white" stop-opacity="0.134615"></stop></radialGradient><radialGradient id="paint12_radial_339_1050" cx="0" cy="0" r="1" gradientUnits="userSpaceOnUse" gradientTransform="translate(328.447 378.48) rotate(90) scale(26.4318 417.714)"><stop stop-color="white"></stop><stop offset="0.592173" stop-color="white" stop-opacity="0.134615"></stop></radialGradient><radialGradient id="paint13_radial_339_1050" cx="0" cy="0" r="1" gradientUnits="userSpaceOnUse" gradientTransform="translate(321.853 367.8) rotate(90) scale(26.7575 426.105)"><stop stop-color="white"></stop><stop offset="0.592173" stop-color="white" stop-opacity="0.134615"></stop></radialGradient><radialGradient id="paint14_radial_339_1050" cx="0" cy="0" r="1" gradientUnits="userSpaceOnUse" gradientTransform="translate(313.874 356.38) rotate(90) scale(28.4623 433.958)"><stop stop-color="white"></stop><stop offset="0.592173" stop-color="white" stop-opacity="0.134615"></stop></radialGradient><radialGradient id="paint15_radial_339_1050" cx="0" cy="0" r="1" gradientUnits="userSpaceOnUse" gradientTransform="translate(305.227 342.031) rotate(90) scale(33.2025 440.461)"><stop stop-color="white"></stop><stop offset="0.592173" stop-color="white" stop-opacity="0.134615"></stop></radialGradient><radialGradient id="paint16_radial_339_1050" cx="0" cy="0" r="1" gradientUnits="userSpaceOnUse" gradientTransform="translate(296.64 327.562) rotate(90) scale(37.7051 444.815)"><stop stop-color="white"></stop><stop offset="0.592173" stop-color="white" stop-opacity="0.134615"></stop></radialGradient><radialGradient id="paint17_radial_339_1050" cx="0" cy="0" r="1" gradientUnits="userSpaceOnUse" gradientTransform="translate(288.819 312.762) rotate(90) scale(41.6895 446.206)"><stop stop-color="white"></stop><stop offset="0.592173" stop-color="white" stop-opacity="0.134615"></stop></radialGradient><radialGradient id="paint18_radial_339_1050" cx="0" cy="0" r="1" gradientUnits="userSpaceOnUse" gradientTransform="translate(282.489 297.413) rotate(90) scale(44.873 443.831)"><stop stop-color="white"></stop><stop offset="0.592173" stop-color="white" stop-opacity="0.134615"></stop></radialGradient><radialGradient id="paint19_radial_339_1050" cx="0" cy="0" r="1" gradientUnits="userSpaceOnUse" gradientTransform="translate(278.406 281.155) rotate(90) scale(47.0195 436.863)"><stop stop-color="white"></stop><stop offset="0.592173" stop-color="white" stop-opacity="0.134615"></stop></radialGradient><radialGradient id="paint20_radial_339_1050" cx="0" cy="0" r="1" gradientUnits="userSpaceOnUse" gradientTransform="translate(278.764 261.174) rotate(90) scale(49.8952 429.194)"><stop stop-color="white"></stop><stop offset="0.592173" stop-color="white" stop-opacity="0.134615"></stop></radialGradient><radialGradient id="paint21_radial_339_1050" cx="0" cy="0" r="1" gradientUnits="userSpaceOnUse" gradientTransform="translate(282.591 240.552) rotate(90) scale(50.9244 425.128)"><stop stop-color="white"></stop><stop offset="0.592173" stop-color="white" stop-opacity="0.134615"></stop></radialGradient><radialGradient id="paint22_radial_339_1050" cx="0" cy="0" r="1" gradientUnits="userSpaceOnUse" gradientTransform="translate(288.783 220.375) rotate(90) scale(50.6053 423.086)"><stop stop-color="white"></stop><stop offset="0.592173" stop-color="white" stop-opacity="0.134615"></stop></radialGradient><radialGradient id="paint23_radial_339_1050" cx="0" cy="0" r="1" gradientUnits="userSpaceOnUse" gradientTransform="translate(296.244 201.626) rotate(90) scale(49.3385 421.48)"><stop stop-color="white"></stop><stop offset="0.592173" stop-color="white" stop-opacity="0.134615"></stop></radialGradient><radialGradient id="paint24_radial_339_1050" cx="0" cy="0" r="1" gradientUnits="userSpaceOnUse" gradientTransform="translate(303.869 185.105) rotate(90) scale(47.3406 418.729)"><stop stop-color="white"></stop><stop offset="0.592173" stop-color="white" stop-opacity="0.134615"></stop></radialGradient><radialGradient id="paint25_radial_339_1050" cx="0" cy="0" r="1" gradientUnits="userSpaceOnUse" gradientTransform="translate(310.558 171.391) rotate(90) scale(44.6014 413.247)"><stop stop-color="white"></stop><stop offset="0.592173" stop-color="white" stop-opacity="0.134615"></stop></radialGradient><radialGradient id="paint26_radial_339_1050" cx="0" cy="0" r="1" gradientUnits="userSpaceOnUse" gradientTransform="translate(315.215 154.474) rotate(90) scale(47.5216 403.451)"><stop stop-color="white"></stop><stop offset="0.592173" stop-color="white" stop-opacity="0.134615"></stop></radialGradient><radialGradient id="paint27_radial_339_1050" cx="0" cy="0" r="1" gradientUnits="userSpaceOnUse" gradientTransform="translate(317.036 139.804) rotate(90) scale(47.8153 392.066)"><stop stop-color="white"></stop><stop offset="0.592173" stop-color="white" stop-opacity="0.134615"></stop></radialGradient><radialGradient id="paint28_radial_339_1050" cx="0" cy="0" r="1" gradientUnits="userSpaceOnUse" gradientTransform="translate(317.823 127.302) rotate(90) scale(45.6401 385.902)"><stop stop-color="white"></stop><stop offset="0.592173" stop-color="white" stop-opacity="0.134615"></stop></radialGradient><radialGradient id="paint29_radial_339_1050" cx="0" cy="0" r="1" gradientUnits="userSpaceOnUse" gradientTransform="translate(317.885 115.25) rotate(90) scale(43.842 384.293)"><stop stop-color="white"></stop><stop offset="0.592173" stop-color="white" stop-opacity="0.134615"></stop></radialGradient><radialGradient id="paint30_radial_339_1050" cx="0" cy="0" r="1" gradientUnits="userSpaceOnUse" gradientTransform="translate(317.322 103.823) rotate(90) scale(42.4279 386.443)"><stop stop-color="white"></stop><stop offset="0.592173" stop-color="white" stop-opacity="0.134615"></stop></radialGradient><radialGradient id="paint31_radial_339_1050" cx="0" cy="0" r="1" gradientUnits="userSpaceOnUse" gradientTransform="translate(316.244 92.5625) rotate(90) scale(40.9282 391.558)"><stop stop-color="white"></stop><stop offset="0.592173" stop-color="white" stop-opacity="0.134615"></stop></radialGradient><radialGradient id="paint32_radial_339_1050" cx="0" cy="0" r="1" gradientUnits="userSpaceOnUse" gradientTransform="translate(314.754 81.7017) rotate(90) scale(39.3091 398.827)"><stop stop-color="white"></stop><stop offset="0.592173" stop-color="white" stop-opacity="0.134615"></stop></radialGradient><radialGradient id="paint33_radial_339_1050" cx="0" cy="0" r="1" gradientUnits="userSpaceOnUse" gradientTransform="translate(312.96 71.3551) rotate(90) scale(37.6542 407.458)"><stop stop-color="white"></stop><stop offset="0.592173" stop-color="white" stop-opacity="0.134615"></stop></radialGradient><radialGradient id="paint34_radial_339_1050" cx="0" cy="0" r="1" gradientUnits="userSpaceOnUse" gradientTransform="translate(310.973 61.6882) rotate(90) scale(35.9787 416.656)"><stop stop-color="white"></stop><stop offset="0.592173" stop-color="white" stop-opacity="0.134615"></stop></radialGradient><radialGradient id="paint35_radial_339_1050" cx="0" cy="0" r="1" gradientUnits="userSpaceOnUse" gradientTransform="translate(308.901 52.8541) rotate(90) scale(34.3351 425.625)"><stop stop-color="white"></stop><stop offset="0.592173" stop-color="white" stop-opacity="0.134615"></stop></radialGradient><radialGradient id="paint36_radial_339_1050" cx="0" cy="0" r="1" gradientUnits="userSpaceOnUse" gradientTransform="translate(306.84 43.9353) rotate(90) scale(33.8406 433.549)"><stop stop-color="white"></stop><stop offset="0.592173" stop-color="white" stop-opacity="0.134615"></stop></radialGradient><radialGradient id="paint37_radial_339_1050" cx="0" cy="0" r="1" gradientUnits="userSpaceOnUse" gradientTransform="translate(304.906 34.4908) rotate(90) scale(35.119 439.647)"><stop stop-color="white"></stop><stop offset="0.592173" stop-color="white" stop-opacity="0.134615"></stop></radialGradient><radialGradient id="paint38_radial_339_1050" cx="0" cy="0" r="1" gradientUnits="userSpaceOnUse" gradientTransform="translate(303.203 26.7232) rotate(90) scale(36.167 443.108)"><stop stop-color="white"></stop><stop offset="0.592173" stop-color="white" stop-opacity="0.134615"></stop></radialGradient><radialGradient id="paint39_radial_339_1050" cx="0" cy="0" r="1" gradientUnits="userSpaceOnUse" gradientTransform="translate(301.835 20.4227) rotate(90) scale(37.3944 443.143)"><stop stop-color="white"></stop><stop offset="0.592173" stop-color="white" stop-opacity="0.134615"></stop></radialGradient><radialGradient id="paint40_radial_339_1050" cx="0" cy="0" r="1" gradientUnits="userSpaceOnUse" gradientTransform="translate(300.913 16.1242) rotate(90) scale(38.4582 438.946)"><stop stop-color="white"></stop><stop offset="0.592173" stop-color="white" stop-opacity="0.134615"></stop></radialGradient><radialGradient id="paint41_radial_339_1050" cx="0" cy="0" r="1" gradientUnits="userSpaceOnUse" gradientTransform="translate(620.072 288.961) rotate(90) scale(289.882 52.1542)"><stop stop-color="white"></stop><stop offset="0.592173" stop-color="white" stop-opacity="0.134615"></stop></radialGradient><radialGradient id="paint42_radial_339_1050" cx="0" cy="0" r="1" gradientUnits="userSpaceOnUse" gradientTransform="translate(605.009 287.681) rotate(90) scale(289.32 54.6084)"><stop stop-color="white"></stop><stop offset="0.592173" stop-color="white" stop-opacity="0.134615"></stop></radialGradient><radialGradient id="paint43_radial_339_1050" cx="0" cy="0" r="1" gradientUnits="userSpaceOnUse" gradientTransform="translate(591.256 287.795) rotate(90) scale(288.432 56.1405)"><stop stop-color="white"></stop><stop offset="0.592173" stop-color="white" stop-opacity="0.134615"></stop></radialGradient><radialGradient id="paint44_radial_339_1050" cx="0" cy="0" r="1" gradientUnits="userSpaceOnUse" gradientTransform="translate(578.065 288.898) rotate(90) scale(287.531 57.3124)"><stop stop-color="white"></stop><stop offset="0.592173" stop-color="white" stop-opacity="0.134615"></stop></radialGradient><radialGradient id="paint45_radial_339_1050" cx="0" cy="0" r="1" gradientUnits="userSpaceOnUse" gradientTransform="translate(565.184 290.611) rotate(90) scale(286.943 58.2792)"><stop stop-color="white"></stop><stop offset="0.592173" stop-color="white" stop-opacity="0.134615"></stop></radialGradient><radialGradient id="paint46_radial_339_1050" cx="0" cy="0" r="1" gradientUnits="userSpaceOnUse" gradientTransform="translate(552.062 292.528) rotate(90) scale(286.981 59.4499)"><stop stop-color="white"></stop><stop offset="0.592173" stop-color="white" stop-opacity="0.134615"></stop></radialGradient><radialGradient id="paint47_radial_339_1050" cx="0" cy="0" r="1" gradientUnits="userSpaceOnUse" gradientTransform="translate(538.628 294.261) rotate(90) scale(287.966 60.7782)"><stop stop-color="white"></stop><stop offset="0.592173" stop-color="white" stop-opacity="0.134615"></stop></radialGradient><radialGradient id="paint48_radial_339_1050" cx="0" cy="0" r="1" gradientUnits="userSpaceOnUse" gradientTransform="translate(523.734 295.415) rotate(90) scale(290.218 63.5597)"><stop stop-color="white"></stop><stop offset="0.592173" stop-color="white" stop-opacity="0.134615"></stop></radialGradient><radialGradient id="paint49_radial_339_1050" cx="0" cy="0" r="1" gradientUnits="userSpaceOnUse" gradientTransform="translate(501.954 295.594) rotate(90) scale(294.057 73.7579)"><stop stop-color="white"></stop><stop offset="0.592173" stop-color="white" stop-opacity="0.134615"></stop></radialGradient><radialGradient id="paint50_radial_339_1050" cx="0" cy="0" r="1" gradientUnits="userSpaceOnUse" gradientTransform="translate(477.847 296.19) rotate(90) scale(298.046 75.0582)"><stop stop-color="white"></stop><stop offset="0.592173" stop-color="white" stop-opacity="0.134615"></stop></radialGradient><radialGradient id="paint51_radial_339_1050" cx="0" cy="0" r="1" gradientUnits="userSpaceOnUse" gradientTransform="translate(448.111 297.81) rotate(90) scale(294.914 72.5602)"><stop stop-color="white"></stop><stop offset="0.592173" stop-color="white" stop-opacity="0.134615"></stop></radialGradient><radialGradient id="paint52_radial_339_1050" cx="0" cy="0" r="1" gradientUnits="userSpaceOnUse" gradientTransform="translate(418.088 299.978) rotate(90) scale(287.405 63.7695)"><stop stop-color="white"></stop><stop offset="0.592173" stop-color="white" stop-opacity="0.134615"></stop></radialGradient><radialGradient id="paint53_radial_339_1050" cx="0" cy="0" r="1" gradientUnits="userSpaceOnUse" gradientTransform="translate(386.511 301.9) rotate(90) scale(278.73 54.8538)"><stop stop-color="white"></stop><stop offset="0.592173" stop-color="white" stop-opacity="0.134615"></stop></radialGradient><radialGradient id="paint54_radial_339_1050" cx="0" cy="0" r="1" gradientUnits="userSpaceOnUse" gradientTransform="translate(359.145 302.987) rotate(90) scale(271.961 52.8154)"><stop stop-color="white"></stop><stop offset="0.592173" stop-color="white" stop-opacity="0.134615"></stop></radialGradient><radialGradient id="paint55_radial_339_1050" cx="0" cy="0" r="1" gradientUnits="userSpaceOnUse" gradientTransform="translate(331.979 302.596) rotate(90) scale(270.147 53.0309)"><stop stop-color="white"></stop><stop offset="0.592173" stop-color="white" stop-opacity="0.134615"></stop></radialGradient><radialGradient id="paint56_radial_339_1050" cx="0" cy="0" r="1" gradientUnits="userSpaceOnUse" gradientTransform="translate(305.231 300.103) rotate(90) scale(276.389 56.1551)"><stop stop-color="white"></stop><stop offset="0.592173" stop-color="white" stop-opacity="0.134615"></stop></radialGradient><radialGradient id="paint57_radial_339_1050" cx="0" cy="0" r="1" gradientUnits="userSpaceOnUse" gradientTransform="translate(279.657 294.87) rotate(90) scale(293.759 62.7615)"><stop stop-color="white"></stop><stop offset="0.592173" stop-color="white" stop-opacity="0.134615"></stop></radialGradient><radialGradient id="paint58_radial_339_1050" cx="0" cy="0" r="1" gradientUnits="userSpaceOnUse" gradientTransform="translate(249.755 290.454) rotate(90) scale(305.359 62.546)"><stop stop-color="white"></stop><stop offset="0.592173" stop-color="white" stop-opacity="0.134615"></stop></radialGradient><radialGradient id="paint59_radial_339_1050" cx="0" cy="0" r="1" gradientUnits="userSpaceOnUse" gradientTransform="translate(219.966 284.618) rotate(90) scale(307.586 56.2239)"><stop stop-color="white"></stop><stop offset="0.592173" stop-color="white" stop-opacity="0.134615"></stop></radialGradient><radialGradient id="paint60_radial_339_1050" cx="0" cy="0" r="1" gradientUnits="userSpaceOnUse" gradientTransform="translate(197.806 279.382) rotate(90) scale(303.868 52.5541)"><stop stop-color="white"></stop><stop offset="0.592173" stop-color="white" stop-opacity="0.134615"></stop></radialGradient><radialGradient id="paint61_radial_339_1050" cx="0" cy="0" r="1" gradientUnits="userSpaceOnUse" gradientTransform="translate(175.714 276.924) rotate(90) scale(297.349 53.9492)"><stop stop-color="white"></stop><stop offset="0.592173" stop-color="white" stop-opacity="0.134615"></stop></radialGradient><radialGradient id="paint62_radial_339_1050" cx="0" cy="0" r="1" gradientUnits="userSpaceOnUse" gradientTransform="translate(151.124 279.411) rotate(90) scale(291.176 57.1614)"><stop stop-color="white"></stop><stop offset="0.592173" stop-color="white" stop-opacity="0.134615"></stop></radialGradient><radialGradient id="paint63_radial_339_1050" cx="0" cy="0" r="1" gradientUnits="userSpaceOnUse" gradientTransform="translate(127.961 289.02) rotate(90) scale(288.49 56.9252)"><stop stop-color="white"></stop><stop offset="0.592173" stop-color="white" stop-opacity="0.134615"></stop></radialGradient><radialGradient id="paint64_radial_339_1050" cx="0" cy="0" r="1" gradientUnits="userSpaceOnUse" gradientTransform="translate(106.486 307.3) rotate(90) scale(292.239 52.3307)"><stop stop-color="white"></stop><stop offset="0.592173" stop-color="white" stop-opacity="0.134615"></stop></radialGradient><radialGradient id="paint65_radial_339_1050" cx="0" cy="0" r="1" gradientUnits="userSpaceOnUse" gradientTransform="translate(91.6198 315.851) rotate(90) scale(295.358 52.8429)"><stop stop-color="white"></stop><stop offset="0.592173" stop-color="white" stop-opacity="0.134615"></stop></radialGradient><radialGradient id="paint66_radial_339_1050" cx="0" cy="0" r="1" gradientUnits="userSpaceOnUse" gradientTransform="translate(74.9484 320.942) rotate(90) scale(298.039 52.465)"><stop stop-color="white"></stop><stop offset="0.592173" stop-color="white" stop-opacity="0.134615"></stop></radialGradient><radialGradient id="paint67_radial_339_1050" cx="0" cy="0" r="1" gradientUnits="userSpaceOnUse" gradientTransform="translate(56.6999 323.817) rotate(90) scale(299.554 51.456)"><stop stop-color="white"></stop><stop offset="0.592173" stop-color="white" stop-opacity="0.134615"></stop></radialGradient><radialGradient id="paint68_radial_339_1050" cx="0" cy="0" r="1" gradientUnits="userSpaceOnUse" gradientTransform="translate(37.5774 324.76) rotate(90) scale(300.129 49.5936)"><stop stop-color="white"></stop><stop offset="0.592173" stop-color="white" stop-opacity="0.134615"></stop></radialGradient><radialGradient id="paint69_radial_339_1050" cx="0" cy="0" r="1" gradientUnits="userSpaceOnUse" gradientTransform="translate(19.9253 324.022) rotate(90) scale(300.037 49.1811)"><stop stop-color="white"></stop><stop offset="0.592173" stop-color="white" stop-opacity="0.134615"></stop></radialGradient><radialGradient id="paint70_radial_339_1050" cx="0" cy="0" r="1" gradientUnits="userSpaceOnUse" gradientTransform="translate(1.76345 321.728) rotate(90) scale(299.653 48.0662)"><stop stop-color="white"></stop><stop offset="0.592173" stop-color="white" stop-opacity="0.134615"></stop></radialGradient><radialGradient id="paint71_radial_339_1050" cx="0" cy="0" r="1" gradientUnits="userSpaceOnUse" gradientTransform="translate(-16.6376 318.29) rotate(90) scale(299.101 46.4081)"><stop stop-color="white"></stop><stop offset="0.592173" stop-color="white" stop-opacity="0.134615"></stop></radialGradient><radialGradient id="paint72_radial_339_1050" cx="0" cy="0" r="1" gradientUnits="userSpaceOnUse" gradientTransform="translate(-34.9058 313.847) rotate(90) scale(298.738 44.5177)"><stop stop-color="white"></stop><stop offset="0.592173" stop-color="white" stop-opacity="0.134615"></stop></radialGradient></defs></svg>